<?xml version="1.0" encoding="UTF-8"?>
<svg version="1.1" xmlns="http://www.w3.org/2000/svg" width="192" height="192">
<path d="M0 0 C1.38456958 1.18045613 2.76851141 2.36164846 4.15234375 3.54296875 C5.14234375 3.87296875 6.13234375 4.20296875 7.15234375 4.54296875 C8.51873717 6.18264085 9.84728565 7.85407003 11.15234375 9.54296875 C12.51359375 10.87328125 12.51359375 10.87328125 13.90234375 12.23046875 C16.15234375 14.54296875 16.15234375 14.54296875 16.15234375 16.54296875 C17.14234375 16.87296875 18.13234375 17.20296875 19.15234375 17.54296875 C20.72265625 19.43359375 20.72265625 19.43359375 22.27734375 21.79296875 C22.79554688 22.56125 23.31375 23.32953125 23.84765625 24.12109375 C25.19878778 26.62918221 25.7445161 28.73791028 26.15234375 31.54296875 C26.81234375 31.54296875 27.47234375 31.54296875 28.15234375 31.54296875 C35.49674724 46.49322699 38.33954465 59.47287426 38.33764648 76.08374023 C38.33982047 78.20772737 38.35798318 80.33118338 38.37695312 82.45507812 C38.42445135 93.5203882 37.48261282 103.88436593 33.52734375 114.29296875 C32.85832031 116.07960937 32.85832031 116.07960937 32.17578125 117.90234375 C31.83804688 118.77375 31.5003125 119.64515625 31.15234375 120.54296875 C30.49234375 120.54296875 29.83234375 120.54296875 29.15234375 120.54296875 C29.04921875 121.08824219 28.94609375 121.63351563 28.83984375 122.1953125 C24.77921322 136.06144288 12.64291817 148.44305563 1.15234375 156.54296875 C0.16234375 156.87296875 -0.82765625 157.20296875 -1.84765625 157.54296875 C-1.84765625 158.20296875 -1.84765625 158.86296875 -1.84765625 159.54296875 C-3.47015566 160.38116033 -5.09574122 161.21338035 -6.72265625 162.04296875 C-7.62757813 162.50703125 -8.5325 162.97109375 -9.46484375 163.44921875 C-11.84765625 164.54296875 -11.84765625 164.54296875 -13.84765625 164.54296875 C-13.84765625 166.85296875 -13.84765625 169.16296875 -13.84765625 171.54296875 C-8.89765625 171.54296875 -3.94765625 171.54296875 1.15234375 171.54296875 C1.81234375 172.86296875 2.47234375 174.18296875 3.15234375 175.54296875 C-30.83765625 175.54296875 -64.82765625 175.54296875 -99.84765625 175.54296875 C-99.84765625 170.73068717 -99.74871468 167.16707705 -98.84765625 162.60546875 C-98.66203125 161.64769531 -98.47640625 160.68992188 -98.28515625 159.703125 C-98.14078125 158.99027344 -97.99640625 158.27742187 -97.84765625 157.54296875 C-98.83765625 157.21296875 -99.82765625 156.88296875 -100.84765625 156.54296875 C-100.84765625 155.88296875 -100.84765625 155.22296875 -100.84765625 154.54296875 C-101.52828125 154.37796875 -102.20890625 154.21296875 -102.91015625 154.04296875 C-107.19874828 151.85304942 -110.04274681 148.42295876 -112.84765625 144.54296875 C-112.84765625 143.88296875 -112.84765625 143.22296875 -112.84765625 142.54296875 C-113.83765625 142.21296875 -114.82765625 141.88296875 -115.84765625 141.54296875 C-115.84765625 140.88296875 -115.84765625 140.22296875 -115.84765625 139.54296875 C-116.83765625 139.21296875 -117.82765625 138.88296875 -118.84765625 138.54296875 C-125.96466098 130.15008642 -130.88402472 119.06519195 -133.84765625 108.54296875 C-134.10144043 107.64674805 -134.35522461 106.75052734 -134.61669922 105.82714844 C-136.73151684 97.61760781 -137.34537663 89.76514135 -137.29370117 81.34204102 C-137.2852029 79.24199704 -137.31406298 77.144699 -137.34570312 75.04492188 C-137.44040166 56.81705045 -132.05678286 37.19586317 -120.84765625 22.54296875 C-120.18765625 22.54296875 -119.52765625 22.54296875 -118.84765625 22.54296875 C-118.84765625 21.55296875 -118.84765625 20.56296875 -118.84765625 19.54296875 C-117.72020544 18.34718758 -116.57802757 17.16268416 -115.375 16.04296875 C-113.71426795 14.41196848 -112.31081075 12.66525586 -110.84765625 10.85546875 C-101.85410921 0.50995059 -89.99574289 -6.79260701 -76.953125 -10.78125 C-74.7880594 -11.43512401 -74.7880594 -11.43512401 -72.5625 -12.46875 C-69.16552581 -13.70534636 -65.79265905 -14.17067813 -62.22265625 -14.58203125 C-61.50827393 -14.66477295 -60.7938916 -14.74751465 -60.05786133 -14.83276367 C-38.84567596 -17.15781227 -17.12379651 -13.50354355 0 0 Z M-91.84765625 161.54296875 C-92.83765625 163.02796875 -92.83765625 163.02796875 -93.84765625 164.54296875 C-91.86765625 164.54296875 -89.88765625 164.54296875 -87.84765625 164.54296875 C-88.8261582 163.52192324 -89.82746052 162.52235665 -90.84765625 161.54296875 C-91.17765625 161.54296875 -91.50765625 161.54296875 -91.84765625 161.54296875 Z M-80.84765625 167.54296875 C-80.18765625 168.86296875 -79.52765625 170.18296875 -78.84765625 171.54296875 C-78.84765625 170.22296875 -78.84765625 168.90296875 -78.84765625 167.54296875 C-79.50765625 167.54296875 -80.16765625 167.54296875 -80.84765625 167.54296875 Z M-73.84765625 169.54296875 C-73.84765625 170.20296875 -73.84765625 170.86296875 -73.84765625 171.54296875 C-72.85765625 171.54296875 -71.86765625 171.54296875 -70.84765625 171.54296875 C-70.84765625 170.88296875 -70.84765625 170.22296875 -70.84765625 169.54296875 C-71.83765625 169.54296875 -72.82765625 169.54296875 -73.84765625 169.54296875 Z " fill="#D11D75" transform="translate(145.84765625,16.45703125)"/>
<path d="M0 0 C5.32741508 4.05610012 9.7598146 8.09265234 13 14 C10.69 14 8.38 14 6 14 C6 18.95 6 23.9 6 29 C-0.27 29 -6.54 29 -13 29 C-13 34.61 -13 40.22 -13 46 C-6.73 46 -0.46 46 6 46 C6 48.97 6 51.94 6 55 C6.94875 55.144375 7.8975 55.28875 8.875 55.4375 C12 56 12 56 14 57 C14 62.94 14 68.88 14 75 C14.99 75 15.98 75 17 75 C16.01 74.505 16.01 74.505 15 74 C14.97315688 71.18743719 14.95323812 68.37512759 14.9375 65.5625 C14.92912109 64.76005859 14.92074219 63.95761719 14.91210938 63.13085938 C14.9034857 61.08704779 14.9477185 59.04316098 15 57 C16 56 16 56 19.4375 55.6875 C23.9645771 55.71983627 27.37330303 57.24606208 31.46484375 59.0546875 C34.71978504 60.26839442 37.73545965 60.52411217 41.1875 60.62890625 C43 61 43 61 45 64 C47.05925139 64.72382467 47.05925139 64.72382467 49 65 C49.66969591 67.4575448 50.3358768 69.91594924 51 72.375 C51.19078125 73.07367188 51.3815625 73.77234375 51.578125 74.4921875 C53 79.7734375 53 79.7734375 53 82 C49.83884224 80.63016497 49.0072908 80.0109362 47 77 C45.02 77.99 45.02 77.99 43 79 C44.134375 79.45375 45.26875 79.9075 46.4375 80.375 C50 82 50 82 51 84 C45.3030216 84.38623582 41.10611168 83.85407918 35.6875 82 C28.87242239 79.73630638 21.84480396 78.72685046 14.78515625 80.58203125 C13 81 13 81 11 80 C3.62529595 78.87039544 -2.93179376 80.91099918 -9.84594727 83.22119141 C-14.43391925 84.71554421 -18.17131274 85.25314219 -23 85 C-24.5111995 79.96266834 -23.64599773 75.11828973 -23 70 C-23.66 70 -24.32 70 -25 70 C-25.13277344 71.04800781 -25.26554687 72.09601563 -25.40234375 73.17578125 C-25.58057235 74.55470778 -25.75896641 75.93361293 -25.9375 77.3125 C-26.02451172 78.00279297 -26.11152344 78.69308594 -26.20117188 79.40429688 C-26.59210135 82.40142288 -27.0415004 85.12450119 -28 88 C-16.78 88 -5.56 88 6 88 C6 89.65 6 91.3 6 93 C11.94 93 17.88 93 24 93 C24 91.35 24 89.7 24 88 C35.22 88 46.44 88 58 88 C56.35 84.37 54.7 80.74 53 77 C50 68 50 68 50 63 C46.43885433 61.68799896 42.97561416 60.78315266 39.25 60.125 C33.85918608 59.10910194 29.00980865 57.19578847 24 55 C24 52.36 24 49.72 24 47 C30.27 47 36.54 47 43 47 C43 41.06 43 35.12 43 29 C36.73 29 30.46 29 24 29 C24 24.05 24 19.1 24 14 C22.02 14 20.04 14 18 14 C23.56260252 5.6015609 30.85231446 -1.76064991 41 -4 C47.93885554 -4.96410713 53.88095777 -3.32822995 59.48046875 0.8515625 C69.57390841 9.49435652 74.76287285 18.15591488 78 31 C78.19207031 31.65871094 78.38414062 32.31742188 78.58203125 32.99609375 C82.39594541 51.2814953 74.56873916 69.63772604 65.2421875 84.87109375 C61.67057392 90.1952898 57.5637654 94.99561493 53.171875 99.66015625 C51.01163987 101.91347182 51.01163987 101.91347182 49.328125 104.18359375 C46.59778132 107.54245713 45.07731017 108.86201315 40.67578125 109.42578125 C37.41872322 109.43634468 34.24138821 109.30707888 31 109 C31 109.66 31 110.32 31 111 C31.99 111 32.98 111 34 111 C36.43802084 117.61337149 36.22824645 123.95248062 36.125 130.9375 C36.11597656 132.09830078 36.10695313 133.25910156 36.09765625 134.45507812 C36.07421162 137.30360108 36.04139522 140.15169078 36 143 C34.02 143.33 32.04 143.66 30 144 C30 143.01 30 142.02 30 141 C30.99 141 31.98 141 33 141 C32.98715603 137.57708302 32.85543593 134.32428899 32 131 C29.04990627 129.27487535 29.04990627 129.27487535 26 128 C24.55169021 122.82746503 24.89081752 117.34994139 25 112 C26.98 112.495 26.98 112.495 29 113 C29 111.35 29 109.7 29 108 C28.34 108 27.68 108 27 108 C27 107.34 27 106.68 27 106 C25.68 106 24.36 106 23 106 C23.01160156 107.04800781 23.02320312 108.09601563 23.03515625 109.17578125 C23.04453655 110.55468572 23.0536365 111.93359211 23.0625 113.3125 C23.07087891 114.00279297 23.07925781 114.69308594 23.08789062 115.40429688 C23.10307906 118.5483025 23.00193327 120.99420019 22 124 C19.16493821 125.62003531 17.33246005 126.01414724 14.0625 125.875 C9.57620609 124.59320174 6.28090367 122.28090367 3 119 C1.02041695 113.41058903 0.45048859 107.89191661 0 102 C-4.50353262 100.24252386 -8.17639811 99.80705592 -13 100 C-12.67 100.66 -12.34 101.32 -12 102 C-9.65092125 102.68931344 -9.65092125 102.68931344 -6.9375 103.125 C-6.01839844 103.29257813 -5.09929687 103.46015625 -4.15234375 103.6328125 C-3.08693359 103.81457031 -3.08693359 103.81457031 -2 104 C-2.15992432 104.85972412 -2.31984863 105.71944824 -2.48461914 106.60522461 C-2.98227848 109.88326968 -3.17187685 113.00413357 -3.24609375 116.31640625 C-3.27896484 117.49267578 -3.31183594 118.66894531 -3.34570312 119.88085938 C-3.40699603 122.3390962 -3.46427546 124.79743632 -3.51757812 127.25585938 C-3.55173828 128.43083984 -3.58589844 129.60582031 -3.62109375 130.81640625 C-3.65867798 132.41657593 -3.65867798 132.41657593 -3.69702148 134.04907227 C-4.00443845 137.04322933 -4.74351531 139.27997301 -6 142 C-6.99 142 -7.98 142 -9 142 C-8.85908107 138.68727224 -8.71134606 135.37488029 -8.5625 132.0625 C-8.52318359 131.13630859 -8.48386719 130.21011719 -8.44335938 129.25585938 C-7.70314988 113.02818969 -7.70314988 113.02818969 -5 106 C-6.65 106 -8.3 106 -10 106 C-10.495 107.98 -10.495 107.98 -11 110 C-28.88469266 95.44626729 -44.50663803 74.35562006 -48 51 C-49.12857916 35.18023005 -47.59963586 21.50798517 -37 9 C-26.27463774 -2.82917313 -15.02974447 -8.61460964 0 0 Z " fill="#FCFAFB" transform="translate(81,40)"/>
<path d="M0 0 C1.06992188 0.4434375 2.13984375 0.886875 3.2421875 1.34375 C25.55665826 10.79523533 41.18949722 30.22698145 50.31640625 52.1640625 C58.16395175 74.11402371 57.51121702 101.71763773 48.06030273 123.12890625 C47.04205566 125.23709054 45.97694384 127.30936624 44.875 129.375 C44.48320557 130.11032959 44.09141113 130.84565918 43.68774414 131.60327148 C40.15630566 138.03938685 35.99038114 143.60716877 31 149 C30.34257812 149.72574219 29.68515625 150.45148438 29.0078125 151.19921875 C22.91633343 157.62095873 15.7119425 162.68390445 8 167 C7.34 167 6.68 167 6 167 C5.94392578 165.64455078 5.94392578 165.64455078 5.88671875 164.26171875 C5.82097656 163.08222656 5.75523437 161.90273437 5.6875 160.6875 C5.62949219 159.51574219 5.57148438 158.34398437 5.51171875 157.13671875 C5.25084899 154.0446844 5.25084899 154.0446844 3.625 152.125 C1.49485673 150.65028543 -0.45721976 150.34361895 -3 150 C-0.16666667 147.16666667 2.66666667 144.33333333 5.5 141.5 C6.39912109 140.59894531 6.39912109 140.59894531 7.31640625 139.6796875 C8.68066315 138.31859593 10.05724416 136.96986467 11.4375 135.625 C28.42984844 118.21820404 38.80088048 99.18897559 39.25 74.4375 C38.9869235 58.30762197 34.47935445 42.78462637 23.3125 30.75 C15.64446448 23.64515353 8.40425762 20.10483601 -2.15283203 20.36376953 C-12.96227747 21.06273391 -18.83892736 26.26054627 -25.96875 33.98828125 C-28 36 -28 36 -30 36 C-31.06609243 34.80987466 -32.07832997 33.57121392 -33.0625 32.3125 C-38.35026693 26.08835768 -45.79820378 21.79510208 -53.98046875 20.74609375 C-63.46206329 20.22586467 -71.74888216 23.99715759 -78.87890625 30.046875 C-79.57886719 30.69140625 -80.27882813 31.3359375 -81 32 C-81.68964844 32.62390625 -82.37929687 33.2478125 -83.08984375 33.890625 C-93.7090853 44.57101381 -96.6720275 56.25430276 -96.75 70.9375 C-96.57482543 81.98590616 -95.37551533 91.83617728 -91 102 C-90.71592285 102.67417969 -90.4318457 103.34835938 -90.13916016 104.04296875 C-83.49561087 119.39694933 -72.86497587 135.07387029 -58.375 143.875 C-55.76683519 145.73272705 -55.09966453 146.49355653 -54.47265625 149.6796875 C-54.43647642 152.83939249 -54.65069912 155.86021679 -55 159 C-55.08378906 159.99 -55.16757813 160.98 -55.25390625 162 C-55.46332698 164.3401936 -55.71114176 166.66850132 -56 169 C-56.57492188 168.69191406 -57.14984375 168.38382813 -57.7421875 168.06640625 C-59.89140576 167.05129105 -61.81472417 166.46016696 -64.125 165.9375 C-68 165 -68 165 -70 164 C-69.42655063 161.13275314 -69.1385485 160.1385485 -67 158 C-63.375 157.875 -63.375 157.875 -60 158 C-66.13392306 151.14443894 -72.25343462 150.65685669 -81 150 C-79.86695008 153.39914975 -78.87481525 154.05254451 -76 156 C-76.33 156.99 -76.66 157.98 -77 159 C-96.61313487 141.99927039 -109.64214495 121.23113742 -112 95 C-113.81259554 67.08818657 -107.01800211 43.22995853 -88.75 21.75 C-76.37013963 8.70731464 -60.7695744 -0.70732235 -43 -4 C-42.25105469 -4.18304688 -41.50210938 -4.36609375 -40.73046875 -4.5546875 C-28.1842762 -6.60084766 -11.05139998 -6.57821428 0 0 Z " fill="#F9F9FB" transform="translate(125,10)"/>
<path d="M0 0 C1.38456958 1.18045613 2.76851141 2.36164846 4.15234375 3.54296875 C5.14234375 3.87296875 6.13234375 4.20296875 7.15234375 4.54296875 C8.51873717 6.18264085 9.84728565 7.85407003 11.15234375 9.54296875 C12.51359375 10.87328125 12.51359375 10.87328125 13.90234375 12.23046875 C16.15234375 14.54296875 16.15234375 14.54296875 16.15234375 16.54296875 C17.14234375 16.87296875 18.13234375 17.20296875 19.15234375 17.54296875 C20.72265625 19.43359375 20.72265625 19.43359375 22.27734375 21.79296875 C22.79554688 22.56125 23.31375 23.32953125 23.84765625 24.12109375 C25.19878778 26.62918221 25.7445161 28.73791028 26.15234375 31.54296875 C26.81234375 31.54296875 27.47234375 31.54296875 28.15234375 31.54296875 C35.49674724 46.49322699 38.33954465 59.47287426 38.33764648 76.08374023 C38.33982047 78.20772737 38.35798318 80.33118338 38.37695312 82.45507812 C38.42445135 93.5203882 37.48261282 103.88436593 33.52734375 114.29296875 C32.85832031 116.07960937 32.85832031 116.07960937 32.17578125 117.90234375 C31.83804688 118.77375 31.5003125 119.64515625 31.15234375 120.54296875 C30.49234375 120.54296875 29.83234375 120.54296875 29.15234375 120.54296875 C29.04921875 121.08824219 28.94609375 121.63351563 28.83984375 122.1953125 C24.77921322 136.06144288 12.64291817 148.44305563 1.15234375 156.54296875 C0.16234375 156.87296875 -0.82765625 157.20296875 -1.84765625 157.54296875 C-1.84765625 158.20296875 -1.84765625 158.86296875 -1.84765625 159.54296875 C-3.47015566 160.38116033 -5.09574122 161.21338035 -6.72265625 162.04296875 C-7.62757813 162.50703125 -8.5325 162.97109375 -9.46484375 163.44921875 C-11.84765625 164.54296875 -11.84765625 164.54296875 -13.84765625 164.54296875 C-13.84765625 166.85296875 -13.84765625 169.16296875 -13.84765625 171.54296875 C-8.89765625 171.54296875 -3.94765625 171.54296875 1.15234375 171.54296875 C1.81234375 172.86296875 2.47234375 174.18296875 3.15234375 175.54296875 C-30.83765625 175.54296875 -64.82765625 175.54296875 -99.84765625 175.54296875 C-99.84765625 170.73068717 -99.74871468 167.16707705 -98.84765625 162.60546875 C-98.66203125 161.64769531 -98.47640625 160.68992188 -98.28515625 159.703125 C-98.14078125 158.99027344 -97.99640625 158.27742187 -97.84765625 157.54296875 C-98.83765625 157.21296875 -99.82765625 156.88296875 -100.84765625 156.54296875 C-100.84765625 155.88296875 -100.84765625 155.22296875 -100.84765625 154.54296875 C-101.52828125 154.37796875 -102.20890625 154.21296875 -102.91015625 154.04296875 C-107.19874828 151.85304942 -110.04274681 148.42295876 -112.84765625 144.54296875 C-112.84765625 143.88296875 -112.84765625 143.22296875 -112.84765625 142.54296875 C-113.83765625 142.21296875 -114.82765625 141.88296875 -115.84765625 141.54296875 C-115.84765625 140.88296875 -115.84765625 140.22296875 -115.84765625 139.54296875 C-116.83765625 139.21296875 -117.82765625 138.88296875 -118.84765625 138.54296875 C-125.96466098 130.15008642 -130.88402472 119.06519195 -133.84765625 108.54296875 C-134.10144043 107.64674805 -134.35522461 106.75052734 -134.61669922 105.82714844 C-136.73151684 97.61760781 -137.34537663 89.76514135 -137.29370117 81.34204102 C-137.2852029 79.24199704 -137.31406298 77.144699 -137.34570312 75.04492188 C-137.44040166 56.81705045 -132.05678286 37.19586317 -120.84765625 22.54296875 C-120.18765625 22.54296875 -119.52765625 22.54296875 -118.84765625 22.54296875 C-118.84765625 21.55296875 -118.84765625 20.56296875 -118.84765625 19.54296875 C-117.72020544 18.34718758 -116.57802757 17.16268416 -115.375 16.04296875 C-113.71426795 14.41196848 -112.31081075 12.66525586 -110.84765625 10.85546875 C-101.85410921 0.50995059 -89.99574289 -6.79260701 -76.953125 -10.78125 C-74.7880594 -11.43512401 -74.7880594 -11.43512401 -72.5625 -12.46875 C-69.16552581 -13.70534636 -65.79265905 -14.17067813 -62.22265625 -14.58203125 C-61.50827393 -14.66477295 -60.7938916 -14.74751465 -60.05786133 -14.83276367 C-38.84567596 -17.15781227 -17.12379651 -13.50354355 0 0 Z M-99.84765625 6.54296875 C-100.36602051 6.95144043 -100.88438477 7.35991211 -101.41845703 7.78076172 C-116.24106014 19.7512563 -126.45223478 37.02980282 -130.84765625 55.54296875 C-131.15509766 56.80367187 -131.15509766 56.80367187 -131.46875 58.08984375 C-136.62125921 83.24830251 -131.75348136 109.99375709 -117.84765625 131.54296875 C-108.96155429 143.86166356 -108.96155429 143.86166356 -96.84765625 152.54296875 C-97.12383158 150.60222014 -97.12383158 150.60222014 -97.84765625 148.54296875 C-98.83765625 147.88296875 -99.82765625 147.22296875 -100.84765625 146.54296875 C-101.17765625 145.55296875 -101.50765625 144.56296875 -101.84765625 143.54296875 C-94.94892698 143.8310159 -88.79324545 144.8269755 -82.84765625 148.54296875 C-82.18765625 149.53296875 -81.52765625 150.52296875 -80.84765625 151.54296875 C-81.94078125 151.48109375 -83.03390625 151.41921875 -84.16015625 151.35546875 C-87.72770491 151.21764219 -87.72770491 151.21764219 -89.78515625 152.85546875 C-91.11406288 154.63372983 -91.11406288 154.63372983 -90.84765625 157.54296875 C-87.33798877 159.50838254 -83.71547875 160.48810807 -79.84765625 161.54296875 C-78.85765625 161.87296875 -77.86765625 162.20296875 -76.84765625 162.54296875 C-76.75677734 161.51236328 -76.75677734 161.51236328 -76.6640625 160.4609375 C-76.58027344 159.55988281 -76.49648437 158.65882813 -76.41015625 157.73046875 C-76.32894531 156.83714844 -76.24773437 155.94382813 -76.1640625 155.0234375 C-75.84765625 152.54296875 -75.84765625 152.54296875 -74.84765625 149.54296875 C-74.76658939 147.98875146 -74.74008727 146.43129848 -74.75 144.875 C-74.75322266 143.98232422 -74.75644531 143.08964844 -74.75976562 142.16992188 C-74.76814453 141.24115234 -74.77652344 140.31238281 -74.78515625 139.35546875 C-74.78966797 138.41509766 -74.79417969 137.47472656 -74.79882812 136.50585938 C-74.81060999 134.18483163 -74.82706067 131.86393231 -74.84765625 129.54296875 C-73.19765625 129.54296875 -71.54765625 129.54296875 -69.84765625 129.54296875 C-70.15445313 130.27386719 -70.46125 131.00476563 -70.77734375 131.7578125 C-72.3032209 137.15407148 -72.58081038 142.5264829 -72.97265625 148.10546875 C-73.05902344 149.22888672 -73.14539063 150.35230469 -73.234375 151.50976562 C-73.58546177 156.19928177 -73.89808854 160.83827986 -73.84765625 165.54296875 C-72.85765625 165.54296875 -71.86765625 165.54296875 -70.84765625 165.54296875 C-69.07183586 161.6986884 -68.56788532 158.58011722 -68.46875 154.359375 C-68.43458984 153.18439453 -68.40042969 152.00941406 -68.36523438 150.79882812 C-68.33880859 149.58001953 -68.31238281 148.36121094 -68.28515625 147.10546875 C-68.22493002 144.69001236 -68.16124505 142.27463921 -68.09375 139.859375 C-68.05785767 138.25751343 -68.05785767 138.25751343 -68.02124023 136.62329102 C-67.84712449 133.53353244 -67.41321727 130.58332222 -66.84765625 127.54296875 C-67.55792969 127.42179688 -68.26820312 127.300625 -69 127.17578125 C-70.37865234 126.92441406 -70.37865234 126.92441406 -71.78515625 126.66796875 C-72.70167969 126.50554687 -73.61820313 126.343125 -74.5625 126.17578125 C-75.69365234 125.86253906 -75.69365234 125.86253906 -76.84765625 125.54296875 C-77.17765625 124.88296875 -77.50765625 124.22296875 -77.84765625 123.54296875 C-73.02405436 123.35002467 -69.35118887 123.78549261 -64.84765625 125.54296875 C-64.79158203 126.4865625 -64.79158203 126.4865625 -64.734375 127.44921875 C-64.19880924 134.42207494 -63.59898833 140.86218365 -58.41015625 145.91796875 C-57.56453125 146.45421875 -56.71890625 146.99046875 -55.84765625 147.54296875 C-55.20828125 147.97609375 -54.56890625 148.40921875 -53.91015625 148.85546875 C-50.08005668 150.13216861 -46.5565998 148.77928327 -42.84765625 147.54296875 C-41.64143105 143.92429316 -41.73948707 140.61790624 -41.78515625 136.85546875 C-41.78966797 136.15357422 -41.79417969 135.45167969 -41.79882812 134.72851562 C-41.81058698 132.99996337 -41.82852171 131.2714551 -41.84765625 129.54296875 C-40.52765625 129.54296875 -39.20765625 129.54296875 -37.84765625 129.54296875 C-37.84765625 130.20296875 -37.84765625 130.86296875 -37.84765625 131.54296875 C-37.18765625 131.54296875 -36.52765625 131.54296875 -35.84765625 131.54296875 C-35.84765625 133.19296875 -35.84765625 134.84296875 -35.84765625 136.54296875 C-37.16765625 136.21296875 -38.48765625 135.88296875 -39.84765625 135.54296875 C-40.12640238 143.63167196 -40.12640238 143.63167196 -38.84765625 151.54296875 C-37.85765625 151.97609375 -36.86765625 152.40921875 -35.84765625 152.85546875 C-34.85765625 153.41234375 -33.86765625 153.96921875 -32.84765625 154.54296875 C-31.99222032 157.86725774 -31.86050022 161.12005177 -31.84765625 164.54296875 C-32.83765625 164.54296875 -33.82765625 164.54296875 -34.84765625 164.54296875 C-34.84765625 165.53296875 -34.84765625 166.52296875 -34.84765625 167.54296875 C-32.86765625 167.21296875 -30.88765625 166.88296875 -28.84765625 166.54296875 C-28.78922134 162.52219723 -28.75391385 158.50153616 -28.72265625 154.48046875 C-28.69751953 152.77987305 -28.69751953 152.77987305 -28.671875 151.04492188 C-28.63745898 145.14257491 -28.79820814 140.10229848 -30.84765625 134.54296875 C-31.83765625 134.54296875 -32.82765625 134.54296875 -33.84765625 134.54296875 C-33.84765625 133.88296875 -33.84765625 133.22296875 -33.84765625 132.54296875 C-29.22765625 132.54296875 -24.60765625 132.54296875 -19.84765625 132.54296875 C-19.84765625 133.20296875 -19.84765625 133.86296875 -19.84765625 134.54296875 C-21.16765625 134.87296875 -22.48765625 135.20296875 -23.84765625 135.54296875 C-24.04177806 137.02128096 -24.22777756 138.50066191 -24.41015625 139.98046875 C-24.51457031 140.80417969 -24.61898437 141.62789062 -24.7265625 142.4765625 C-24.76652344 143.15847656 -24.80648437 143.84039062 -24.84765625 144.54296875 C-24.51765625 144.87296875 -24.18765625 145.20296875 -23.84765625 145.54296875 C-24.50765625 145.87296875 -25.16765625 146.20296875 -25.84765625 146.54296875 C-25.87458109 148.83457194 -25.89401749 151.12626421 -25.91015625 153.41796875 C-25.92175781 154.69414062 -25.93335937 155.9703125 -25.9453125 157.28515625 C-26.07942194 160.42961527 -26.07942194 160.42961527 -24.84765625 162.54296875 C-22.20765625 162.54296875 -19.56765625 162.54296875 -16.84765625 162.54296875 C-16.51765625 160.23296875 -16.18765625 157.92296875 -15.84765625 155.54296875 C-15.35265625 158.01796875 -15.35265625 158.01796875 -14.84765625 160.54296875 C-5.37959153 156.99037902 1.96063076 150.50118457 9.15234375 143.54296875 C9.84328125 142.8778125 10.53421875 142.21265625 11.24609375 141.52734375 C17.71533883 134.8013826 21.87399634 126.75173919 26.15234375 118.54296875 C26.82136719 117.30353516 26.82136719 117.30353516 27.50390625 116.0390625 C30.84786975 109.31284585 31.884595 101.88299174 33.15234375 94.54296875 C33.33925781 93.60582031 33.52617187 92.66867188 33.71875 91.703125 C37.0619888 67.33663678 31.3590554 42.75788668 16.89306641 22.80615234 C4.15362592 6.14033399 -13.04698366 -6.52563265 -33.84765625 -10.45703125 C-34.74226563 -10.63492187 -35.636875 -10.8128125 -36.55859375 -10.99609375 C-59.85823151 -14.26136365 -81.40758024 -7.99753149 -99.84765625 6.54296875 Z M-91.84765625 161.54296875 C-92.83765625 163.02796875 -92.83765625 163.02796875 -93.84765625 164.54296875 C-91.86765625 164.54296875 -89.88765625 164.54296875 -87.84765625 164.54296875 C-88.8261582 163.52192324 -89.82746052 162.52235665 -90.84765625 161.54296875 C-91.17765625 161.54296875 -91.50765625 161.54296875 -91.84765625 161.54296875 Z M-80.84765625 167.54296875 C-80.18765625 168.86296875 -79.52765625 170.18296875 -78.84765625 171.54296875 C-78.84765625 170.22296875 -78.84765625 168.90296875 -78.84765625 167.54296875 C-79.50765625 167.54296875 -80.16765625 167.54296875 -80.84765625 167.54296875 Z M-73.84765625 169.54296875 C-73.84765625 170.20296875 -73.84765625 170.86296875 -73.84765625 171.54296875 C-72.85765625 171.54296875 -71.86765625 171.54296875 -70.84765625 171.54296875 C-70.84765625 170.88296875 -70.84765625 170.22296875 -70.84765625 169.54296875 C-71.83765625 169.54296875 -72.82765625 169.54296875 -73.84765625 169.54296875 Z " fill="#050507" transform="translate(145.84765625,16.45703125)"/>
<path d="M0 0 C11.49123691 8.5777107 17.52547994 18.21400104 21 32 C21.19207031 32.65871094 21.38414062 33.31742188 21.58203125 33.99609375 C25.39594541 52.2814953 17.56873916 70.63772604 8.2421875 85.87109375 C4.65399547 91.22000327 0.51754297 96.0298868 -3.8828125 100.7265625 C-5.96257338 102.89949635 -5.96257338 102.89949635 -7.5546875 104.9609375 C-9.62633842 107.45394115 -11.28432223 108.88793263 -14.51953125 109.39453125 C-21.00676144 109.49661928 -21.00676144 109.49661928 -24 108 C-24 106.68 -24 105.36 -24 104 C-21.36 104 -18.72 104 -16 104 C-16.33 103.01 -16.66 102.02 -17 101 C-18.76896102 100.63659714 -20.54026626 100.28459117 -22.3125 99.9375 C-23.29863281 99.74027344 -24.28476563 99.54304688 -25.30078125 99.33984375 C-28.09276461 98.79077784 -28.09276461 98.79077784 -31 100 C-31.66 99.34 -32.32 98.68 -33 98 C-32.34 97.01 -31.68 96.02 -31 95 C-31.66 95 -32.32 95 -33 95 C-33 93.02 -33 91.04 -33 89 C-21.78 89 -10.56 89 1 89 C-0.65 85.37 -2.3 81.74 -4 78 C-7 69 -7 69 -7 64 C-10.56114567 62.68799896 -14.02438584 61.78315266 -17.75 61.125 C-23.14081392 60.10910194 -27.99019135 58.19578847 -33 56 C-33 53.36 -33 50.72 -33 48 C-26.73 48 -20.46 48 -14 48 C-14 42.06 -14 36.12 -14 30 C-20.27 30 -26.54 30 -33 30 C-33 25.05 -33 20.1 -33 15 C-34.98 15 -36.96 15 -39 15 C-30.3698948 1.97023333 -15.5498082 -8.92621531 0 0 Z " fill="#FCFBFC" transform="translate(138,39)"/>
<path d="M0 0 C0.66 0 1.32 0 2 0 C2 0.66 2 1.32 2 2 C3.98 2 5.96 2 8 2 C8 6.95 8 11.9 8 17 C14.27 17 20.54 17 27 17 C27 22.94 27 28.88 27 35 C20.73 35 14.46 35 8 35 C8.495 38.96 8.495 38.96 9 43 C15.215226 45.43409992 21.20791186 47.44213404 27.80859375 48.5078125 C31.92795625 49.43301691 31.92795625 49.43301691 34 51 C35.04407505 53.55842752 35.84438033 55.91488706 36.5625 58.5625 C36.95861459 59.93909624 37.35575835 61.31539673 37.75390625 62.69140625 C38.37072266 64.82416016 38.37072266 64.82416016 39 67 C39.99 69.97 40.98 72.94 42 76 C30.78 76 19.56 76 8 76 C8 77.65 8 79.3 8 81 C2.06 81 -3.88 81 -10 81 C-10 79.35 -10 77.7 -10 76 C-21.22 76 -32.44 76 -44 76 C-42 61 -42 61 -41 58 C-40.34 58 -39.68 58 -39 58 C-39 62.62 -39 67.24 -39 72 C-33.1138436 72.14226484 -33.1138436 72.14226484 -27.94921875 70.90625 C-27.25538086 70.68018066 -26.56154297 70.45411133 -25.84667969 70.22119141 C-24.77788574 69.86420166 -24.77788574 69.86420166 -23.6875 69.5 C-15.4134446 66.89891768 -8.54962228 66.06944013 0 68 C0.33 67.67 0.66 67.34 1 67 C8.96693931 66.16209776 15.48816222 67.54348745 22.99609375 70.109375 C26.8742957 71.25921901 29.99251319 71.31431269 34 71 C31.36 69.68 28.72 68.36 26 67 C27.32 66.67 28.64 66.34 30 66 C30.495 64.515 30.495 64.515 31 63 C31.61875 63.969375 32.2375 64.93875 32.875 65.9375 C34.65678846 69.02835362 34.65678846 69.02835362 37 70 C36.24413113 67.18267056 35.47130111 64.37205641 34.6875 61.5625 C34.47416016 60.76005859 34.26082031 59.95761719 34.04101562 59.13085938 C33.82509766 58.36708984 33.60917969 57.60332031 33.38671875 56.81640625 C33.19295654 56.10943604 32.99919434 55.40246582 32.79956055 54.67407227 C32.53570557 54.12162842 32.27185059 53.56918457 32 53 C30.515 52.505 30.515 52.505 29 52 C28.67 52.99 28.34 53.98 28 55 C27.505 52.03 27.505 52.03 27 49 C25.72125 49.0825 24.4425 49.165 23.125 49.25 C18.34320405 49.28002698 14.90499597 47.9686134 10.65234375 45.875 C7.19928078 44.58228111 7.19928078 44.58228111 0 45 C-0.33 50.61 -0.66 56.22 -1 62 C-0.01 62.33 0.98 62.66 2 63 C1 64 1 64 -1.8125 64.25 C-5.27714111 63.97826344 -6.49415104 63.31309135 -9 61 C-6.03 61.495 -6.03 61.495 -3 62 C-2.67 56.39 -2.34 50.78 -2 45 C-4.64 44.34 -7.28 43.68 -10 43 C-10 40.03 -10 37.06 -10 34 C-16.27 34 -22.54 34 -29 34 C-29 28.39 -29 22.78 -29 17 C-22.73 17 -16.46 17 -10 17 C-10 12.38 -10 7.76 -10 3 C-6.7 2.34 -3.4 1.68 0 1 C0 0.67 0 0.34 0 0 Z " fill="#D11B74" transform="translate(97,52)"/>
<path d="M0 0 C1.38456958 1.18045613 2.76851141 2.36164846 4.15234375 3.54296875 C5.14234375 3.87296875 6.13234375 4.20296875 7.15234375 4.54296875 C8.51873717 6.18264085 9.84728565 7.85407003 11.15234375 9.54296875 C12.51359375 10.87328125 12.51359375 10.87328125 13.90234375 12.23046875 C16.15234375 14.54296875 16.15234375 14.54296875 16.15234375 16.54296875 C17.14234375 16.87296875 18.13234375 17.20296875 19.15234375 17.54296875 C20.72265625 19.43359375 20.72265625 19.43359375 22.27734375 21.79296875 C22.79554688 22.56125 23.31375 23.32953125 23.84765625 24.12109375 C25.19878778 26.62918221 25.7445161 28.73791028 26.15234375 31.54296875 C26.81234375 31.54296875 27.47234375 31.54296875 28.15234375 31.54296875 C35.49674724 46.49322699 38.33954465 59.47287426 38.33764648 76.08374023 C38.33982047 78.20772737 38.35798318 80.33118338 38.37695312 82.45507812 C38.42445135 93.5203882 37.48261282 103.88436593 33.52734375 114.29296875 C32.85832031 116.07960937 32.85832031 116.07960937 32.17578125 117.90234375 C31.83804688 118.77375 31.5003125 119.64515625 31.15234375 120.54296875 C30.49234375 120.54296875 29.83234375 120.54296875 29.15234375 120.54296875 C29.04921875 121.08824219 28.94609375 121.63351563 28.83984375 122.1953125 C24.77921322 136.06144288 12.64291817 148.44305563 1.15234375 156.54296875 C0.16234375 156.87296875 -0.82765625 157.20296875 -1.84765625 157.54296875 C-1.84765625 158.20296875 -1.84765625 158.86296875 -1.84765625 159.54296875 C-6.45777867 162.4934471 -9.21295242 164.09269595 -14.84765625 163.54296875 C-14.84765625 162.55296875 -14.84765625 161.56296875 -14.84765625 160.54296875 C-13.01171875 159.21875 -13.01171875 159.21875 -10.47265625 157.85546875 C8.62297156 146.94368143 23.94495713 128.09732187 30.08984375 106.79296875 C30.47496396 105.04951917 30.82927998 103.29897667 31.15234375 101.54296875 C31.3534375 100.61226563 31.55453125 99.6815625 31.76171875 98.72265625 C36.67097726 72.78319572 32.00517488 46.47851357 17.15234375 24.54296875 C4.65551715 7.36700876 -12.78915343 -5.47690185 -33.84765625 -9.45703125 C-34.74226563 -9.63492187 -35.636875 -9.8128125 -36.55859375 -9.99609375 C-58.36966847 -13.05275268 -78.95873389 -7.85631069 -96.75390625 5.14453125 C-113.38079117 18.03456577 -124.93219675 34.83944398 -129.84765625 55.54296875 C-130.15509766 56.80367187 -130.15509766 56.80367187 -130.46875 58.08984375 C-135.61973428 83.24085663 -130.75926846 110.00240791 -116.84765625 131.54296875 C-108.22724114 143.88272494 -108.22724114 143.88272494 -95.84765625 151.54296875 C-95.84765625 153.52296875 -95.84765625 155.50296875 -95.84765625 157.54296875 C-97.49765625 157.21296875 -99.14765625 156.88296875 -100.84765625 156.54296875 C-100.84765625 155.88296875 -100.84765625 155.22296875 -100.84765625 154.54296875 C-101.52828125 154.37796875 -102.20890625 154.21296875 -102.91015625 154.04296875 C-107.19874828 151.85304942 -110.04274681 148.42295876 -112.84765625 144.54296875 C-112.84765625 143.88296875 -112.84765625 143.22296875 -112.84765625 142.54296875 C-113.83765625 142.21296875 -114.82765625 141.88296875 -115.84765625 141.54296875 C-115.84765625 140.88296875 -115.84765625 140.22296875 -115.84765625 139.54296875 C-116.83765625 139.21296875 -117.82765625 138.88296875 -118.84765625 138.54296875 C-125.96466098 130.15008642 -130.88402472 119.06519195 -133.84765625 108.54296875 C-134.10144043 107.64674805 -134.35522461 106.75052734 -134.61669922 105.82714844 C-136.73151684 97.61760781 -137.34537663 89.76514135 -137.29370117 81.34204102 C-137.2852029 79.24199704 -137.31406298 77.144699 -137.34570312 75.04492188 C-137.44040166 56.81705045 -132.05678286 37.19586317 -120.84765625 22.54296875 C-120.18765625 22.54296875 -119.52765625 22.54296875 -118.84765625 22.54296875 C-118.84765625 21.55296875 -118.84765625 20.56296875 -118.84765625 19.54296875 C-117.72020544 18.34718758 -116.57802757 17.16268416 -115.375 16.04296875 C-113.71426795 14.41196848 -112.31081075 12.66525586 -110.84765625 10.85546875 C-101.85410921 0.50995059 -89.99574289 -6.79260701 -76.953125 -10.78125 C-74.7880594 -11.43512401 -74.7880594 -11.43512401 -72.5625 -12.46875 C-69.16552581 -13.70534636 -65.79265905 -14.17067813 -62.22265625 -14.58203125 C-61.50827393 -14.66477295 -60.7938916 -14.74751465 -60.05786133 -14.83276367 C-38.84567596 -17.15781227 -17.12379651 -13.50354355 0 0 Z " fill="#0C77B5" transform="translate(145.84765625,16.45703125)"/>
<path d="M0 0 C6.27 0 12.54 0 19 0 C19 2.97 19 5.94 19 9 C20.423125 9.2165625 20.423125 9.2165625 21.875 9.4375 C25 10 25 10 27 11 C27 16.94 27 22.88 27 29 C27.99 29 28.98 29 30 29 C29.34 28.67 28.68 28.34 28 28 C27.97315688 25.18743719 27.95323812 22.37512759 27.9375 19.5625 C27.92912109 18.76005859 27.92074219 17.95761719 27.91210938 17.13085938 C27.9034857 15.08704779 27.9477185 13.04316098 28 11 C29 10 29 10 32.4375 9.6875 C36.9645771 9.71983627 40.37330303 11.24606208 44.46484375 13.0546875 C47.71978504 14.26839442 50.73545965 14.52411217 54.1875 14.62890625 C56 15 56 15 58 18 C60.05925139 18.72382467 60.05925139 18.72382467 62 19 C62.66969591 21.4575448 63.3358768 23.91594924 64 26.375 C64.19078125 27.07367188 64.3815625 27.77234375 64.578125 28.4921875 C66 33.7734375 66 33.7734375 66 36 C62.83884224 34.63016497 62.0072908 34.0109362 60 31 C58.68 31.66 57.36 32.32 56 33 C57.134375 33.45375 58.26875 33.9075 59.4375 34.375 C63 36 63 36 64 38 C58.3030216 38.38623582 54.10611168 37.85407918 48.6875 36 C41.87242239 33.73630638 34.84480396 32.72685046 27.78515625 34.58203125 C26 35 26 35 24 34 C16.62529595 32.87039544 10.06820624 34.91099918 3.15405273 37.22119141 C-1.43391925 38.71554421 -5.17131274 39.25314219 -10 39 C-10.91093654 35.1011916 -11.16432051 31.43828023 -11.1875 27.4375 C-11.20167969 26.32246094 -11.21585938 25.20742187 -11.23046875 24.05859375 C-11.00514664 21.06830201 -10.6875827 19.44699492 -9 17 C-4.09107387 14.28442384 0.69927278 13.43670237 6.19921875 12.5390625 C10.27542443 11.75452082 14.11392509 10.439287 18 9 C18 6.36 18 3.72 18 1 C12.06 1 6.12 1 0 1 C0 0.67 0 0.34 0 0 Z " fill="#E7BAD2" transform="translate(68,86)"/>
<path d="M0 0 C9.45629572 2.42469121 19.03284704 9.42591148 24.09228516 17.81005859 C33.7885579 35.32960527 37.08822888 54.28006989 32 74 C27.85979798 87.74872905 21.11610371 98.92607536 12 110 C11.15115234 111.03447266 11.15115234 111.03447266 10.28515625 112.08984375 C4.84859459 118.51262975 -1.38027694 123.82834136 -8 129 C-6.865625 129.4125 -5.73125 129.825 -4.5625 130.25 C-1 132 -1 132 -0.21875 133.6875 C0.07916889 136.83692828 -0.40799584 139.63526962 -0.9375 142.75 C-1.13214844 143.92046875 -1.32679688 145.0909375 -1.52734375 146.296875 C-1.68332031 147.18890625 -1.83929688 148.0809375 -2 149 C-4.64 149 -7.28 149 -10 149 C-11.50156874 145.99686252 -11.09281204 143.20932478 -11.0625 139.875 C-11.05347656 138.59367188 -11.04445313 137.31234375 -11.03515625 135.9921875 C-11.02355469 135.00476563 -11.01195313 134.01734375 -11 133 C-10.34 132.67 -9.68 132.34 -9 132 C-9.33 131.67 -9.66 131.34 -10 131 C-9.91062197 129.47480724 -9.75462854 127.95318071 -9.5625 126.4375 C-9.46066406 125.61121094 -9.35882813 124.78492188 -9.25390625 123.93359375 C-9.17011719 123.29550781 -9.08632812 122.65742188 -9 122 C-7.02 121.505 -7.02 121.505 -5 121 C-5.33 120.01 -5.66 119.02 -6 118 C-4.76636719 116.83597656 -4.76636719 116.83597656 -3.5078125 115.6484375 C14.59209089 98.26751914 27.6074843 77.55150114 28.5 51.8125 C28.26416071 44.49305913 26.46349751 37.86506123 24 31 C23.60167969 29.87658203 23.60167969 29.87658203 23.1953125 28.73046875 C19.42351889 19.91165607 11.65911273 11.98319186 3 8 C2.195625 7.5875 1.39125 7.175 0.5625 6.75 C0.046875 6.5025 -0.46875 6.255 -1 6 C-0.01 5.34 0.98 4.68 2 4 C1.34 2.68 0.68 1.36 0 0 Z " fill="#D22277" transform="translate(131,30)"/>
<path d="M0 0 C5.75 -0.125 5.75 -0.125 8 1 C11.63142972 1.02583334 15.2492314 0.97138782 18.87890625 0.87304688 C20.91949275 0.84329561 22.96096585 0.91504024 25 1 C25.66 1.66 26.32 2.32 27 3 C27 2.34 27 1.68 27 1 C34.26 1 41.52 1 49 1 C49.495 2.98 49.495 2.98 50 5 C47.36 5 44.72 5 42 5 C42 6.32 42 7.64 42 9 C47.445 9.495 47.445 9.495 53 10 C53 10.33 53 10.66 53 11 C48.71 11 44.42 11 40 11 C40 11.66 40 12.32 40 13 C40.99 13 41.98 13 43 13 C45.43802084 19.61337149 45.22824645 25.95248062 45.125 32.9375 C45.11597656 34.09830078 45.10695312 35.25910156 45.09765625 36.45507812 C45.07421162 39.30360108 45.04139522 42.15169078 45 45 C42.03 45.495 42.03 45.495 39 46 C39 45.01 39 44.02 39 43 C39.99 43 40.98 43 42 43 C41.98715603 39.57708302 41.85543593 36.32428899 41 33 C38.04990627 31.27487535 38.04990627 31.27487535 35 30 C33.55169021 24.82746503 33.89081752 19.34994139 34 14 C35.32 14.33 36.64 14.66 38 15 C38 13.35 38 11.7 38 10 C37.34 10 36.68 10 36 10 C36 9.34 36 8.68 36 8 C34.68 8 33.36 8 32 8 C32.01160156 9.04800781 32.02320313 10.09601563 32.03515625 11.17578125 C32.04453655 12.55468572 32.0536365 13.93359211 32.0625 15.3125 C32.07087891 16.00279297 32.07925781 16.69308594 32.08789062 17.40429688 C32.10307906 20.5483025 32.00193327 22.99420019 31 26 C28.16493821 27.62003531 26.33246005 28.01414724 23.0625 27.875 C18.57620609 26.59320174 15.28090367 24.28090367 12 21 C10.00931578 15.37924455 9.48755551 9.9319254 9 4 C6.03 3.01 3.06 2.02 0 1 C0 0.67 0 0.34 0 0 Z " fill="#E8C0D6" transform="translate(72,138)"/>
<path d="M0 0 C0.53367188 0.19335938 1.06734375 0.38671875 1.6171875 0.5859375 C6.62026307 2.3344172 11.51200261 3.58898595 16.73828125 4.47265625 C20.963686 5.45785425 20.963686 5.45785425 23 7 C24.04407505 9.55842752 24.84438033 11.91488706 25.5625 14.5625 C25.95861459 15.93909624 26.35575835 17.31539673 26.75390625 18.69140625 C27.16511719 20.11324219 27.57632813 21.53507812 28 23 C28.99 25.97 29.98 28.94 31 32 C19.78 32 8.56 32 -3 32 C-3 33.65 -3 35.3 -3 37 C-8.94 37 -14.88 37 -21 37 C-21 35.35 -21 33.7 -21 32 C-32.22 32 -43.44 32 -55 32 C-53 17 -53 17 -52 14 C-51.34 14 -50.68 14 -50 14 C-50 18.62 -50 23.24 -50 28 C-44.1138436 28.14226484 -44.1138436 28.14226484 -38.94921875 26.90625 C-38.25538086 26.68018066 -37.56154297 26.45411133 -36.84667969 26.22119141 C-36.13415039 25.98319824 -35.42162109 25.74520508 -34.6875 25.5 C-26.4134446 22.89891768 -19.54962228 22.06944013 -11 24 C-10.505 23.505 -10.505 23.505 -10 23 C-2.03306069 22.16209776 4.48816222 23.54348745 11.99609375 26.109375 C15.8742957 27.25921901 18.99251319 27.31431269 23 27 C20.36 25.68 17.72 24.36 15 23 C16.32 22.67 17.64 22.34 19 22 C19.495 20.515 19.495 20.515 20 19 C20.61875 19.969375 21.2375 20.93875 21.875 21.9375 C23.65678846 25.02835362 23.65678846 25.02835362 26 26 C25.24413113 23.18267056 24.47130111 20.37205641 23.6875 17.5625 C23.47416016 16.76005859 23.26082031 15.95761719 23.04101562 15.13085938 C22.82509766 14.36708984 22.60917969 13.60332031 22.38671875 12.81640625 C22.19295654 12.10943604 21.99919434 11.40246582 21.79956055 10.67407227 C21.53570557 10.12162842 21.27185059 9.56918457 21 9 C20.01 8.67 19.02 8.34 18 8 C17.67 8.99 17.34 9.98 17 11 C16.505 8.03 16.505 8.03 16 5 C14.700625 5.061875 13.40125 5.12375 12.0625 5.1875 C6.94450211 5.21187142 2.71931779 3.87433898 -2 2 C-1.34 1.34 -0.68 0.68 0 0 Z " fill="#DD167C" transform="translate(108,96)"/>
<path d="M0 0 C18.81 0.495 18.81 0.495 38 1 C38 2.65 38 4.3 38 6 C39.27617188 5.98839844 40.55234375 5.97679687 41.8671875 5.96484375 C43.53645687 5.95546583 45.20572783 5.94636563 46.875 5.9375 C48.13763672 5.92493164 48.13763672 5.92493164 49.42578125 5.91210938 C50.23144531 5.90888672 51.03710938 5.90566406 51.8671875 5.90234375 C52.98262939 5.89448853 52.98262939 5.89448853 54.12060547 5.88647461 C56 6 56 6 58 7 C58 8.32 58 9.64 58 11 C58.66 11.33 59.32 11.66 60 12 C60.33 11.34 60.66 10.68 61 10 C62.32 10.66 63.64 11.32 65 12 C59.62374766 12.84888195 55.34629602 13.0024305 50 12 C50 12.66 50 13.32 50 14 C48.9275 13.835 47.855 13.67 46.75 13.5 C41.97247601 12.88243855 37.2504539 12.96619867 32.44140625 13.0625 C30 13 30 13 29 12 C27.30858344 12.08963062 25.62040398 12.24577676 23.9375 12.4375 C23.01839844 12.53933594 22.09929687 12.64117187 21.15234375 12.74609375 C20.44207031 12.82988281 19.73179688 12.91367188 19 13 C19.33 13.66 19.66 14.32 20 15 C22.34907875 15.68931344 22.34907875 15.68931344 25.0625 16.125 C25.98160156 16.29257813 26.90070313 16.46015625 27.84765625 16.6328125 C28.55792969 16.75398438 29.26820312 16.87515625 30 17 C29.76011353 18.28958618 29.76011353 18.28958618 29.51538086 19.60522461 C29.01772152 22.88326968 28.82812315 26.00413357 28.75390625 29.31640625 C28.72103516 30.49267578 28.68816406 31.66894531 28.65429688 32.88085938 C28.59300397 35.3390962 28.53572454 37.79743632 28.48242188 40.25585938 C28.44826172 41.43083984 28.41410156 42.60582031 28.37890625 43.81640625 C28.3538501 44.88318604 28.32879395 45.94996582 28.30297852 47.04907227 C27.99556155 50.04322933 27.25648469 52.27997301 26 55 C25.01 55 24.02 55 23 55 C23.14091893 51.68727224 23.28865394 48.37488029 23.4375 45.0625 C23.47681641 44.13630859 23.51613281 43.21011719 23.55664062 42.25585938 C24.29685012 26.02818969 24.29685012 26.02818969 27 19 C25.35 19 23.7 19 22 19 C21.67 20.32 21.34 21.64 21 23 C16.00745759 18.93730073 11.4853121 14.53563046 7.125 9.8125 C6.64893311 9.30170898 6.17286621 8.79091797 5.68237305 8.26464844 C3.21935885 5.56102791 1.65934173 3.31868345 0 0 Z " fill="#FBFBFC" transform="translate(49,127)"/>
<path d="M0 0 C8.90391459 0 8.90391459 0 12.9375 1.9375 C17.11221382 3.78289127 20.63866683 4.49081667 25.1875 4.62890625 C27 5 27 5 29 8 C31.05925139 8.72382467 31.05925139 8.72382467 33 9 C33.66969591 11.4575448 34.3358768 13.91594924 35 16.375 C35.19078125 17.07367188 35.3815625 17.77234375 35.578125 18.4921875 C37 23.7734375 37 23.7734375 37 26 C33.24291498 24.31578947 33.24291498 24.31578947 31.75 22.375 C29.30899845 20.45707021 27.2792223 20.96473659 24.29296875 21.08984375 C21.70855151 20.98858038 19.69801641 20.38638958 17.25 19.5625 C11.52288293 17.67130246 6.00671269 17.34922748 0 17 C0 11.39 0 5.78 0 0 Z " fill="#F6F3F5" transform="translate(97,96)"/>
<path d="M0 0 C-0.06928711 0.60513428 -0.13857422 1.21026855 -0.20996094 1.83374023 C-3.24338097 29.88208046 0.29420367 57.11700661 18.4375 79.75 C25.41922641 88.64240253 25.41922641 88.64240253 35 94 C35 95.98 35 97.96 35 100 C33.35 99.67 31.7 99.34 30 99 C30 98.34 30 97.68 30 97 C29.319375 96.835 28.63875 96.67 27.9375 96.5 C23.64890797 94.31008067 20.80490944 90.87999001 18 87 C18 86.34 18 85.68 18 85 C16.515 84.505 16.515 84.505 15 84 C15 83.34 15 82.68 15 82 C13.515 81.505 13.515 81.505 12 81 C4.88105482 72.60482935 -0.03071113 61.52272504 -3 51 C-3.25523438 50.11248047 -3.51046875 49.22496094 -3.7734375 48.31054688 C-5.98736868 39.81102394 -6.43661407 31.85606246 -6.33618164 23.13989258 C-6.31218989 20.90866001 -6.31569787 18.67859794 -6.32226562 16.44726562 C-6.27512266 4.32255278 -6.27512266 4.32255278 -4 1 C-2 0 -2 0 0 0 Z " fill="#0377BB" transform="translate(15,74)"/>
<path d="M0 0 C0.66 0.33 1.32 0.66 2 1 C2 6.94 2 12.88 2 19 C1.01 18.67 0.02 18.34 -1 18 C-7.36556643 17.3926432 -12.57788825 18.30453354 -18.59375 20.33203125 C-22.1608062 21.32223679 -25.31962645 21.2044652 -29 21 C-28.38487182 15.99109914 -27.7282448 10.99367864 -27 6 C-26.12601562 5.87044922 -26.12601562 5.87044922 -25.234375 5.73828125 C-18.91656124 4.65551128 -13.55125763 2.66982171 -7.76171875 -0.07421875 C-4.64350258 -1.11950479 -3.10319691 -0.96674465 0 0 Z " fill="#F5EFF3" transform="translate(93,96)"/>
<path d="M0 0 C3.3125 0.125 3.3125 0.125 6 1 C1.87239674 12.91230579 -10.06234264 22.77261283 -20 30 C-18.865625 30.4125 -17.73125 30.825 -16.5625 31.25 C-13 33 -13 33 -12.21875 34.6875 C-11.92083111 37.83692828 -12.40799584 40.63526962 -12.9375 43.75 C-13.13214844 44.92046875 -13.32679688 46.0909375 -13.52734375 47.296875 C-13.68332031 48.18890625 -13.83929688 49.0809375 -14 50 C-16.64 50 -19.28 50 -22 50 C-23.50156874 46.99686252 -23.09281204 44.20932478 -23.0625 40.875 C-23.05347656 39.59367187 -23.04445313 38.31234375 -23.03515625 36.9921875 C-23.02355469 36.00476563 -23.01195313 35.01734375 -23 34 C-22.01 33.505 -22.01 33.505 -21 33 C-21.33 32.67 -21.66 32.34 -22 32 C-21.91062197 30.47480724 -21.75462854 28.95318071 -21.5625 27.4375 C-21.40974609 26.19806641 -21.40974609 26.19806641 -21.25390625 24.93359375 C-21.17011719 24.29550781 -21.08632812 23.65742188 -21 23 C-19.68 22.67 -18.36 22.34 -17 22 C-17.33 21.01 -17.66 20.02 -18 19 C-16.67935547 17.69675781 -16.67935547 17.69675781 -15.33203125 16.3671875 C-14.15871875 15.2032615 -12.98554927 14.0391913 -11.8125 12.875 C-11.23435547 12.30523437 -10.65621094 11.73546875 -10.06054688 11.1484375 C-7.28789668 8.391452 -4.68215952 5.6516491 -2.28125 2.5625 C-1.15203125 1.2940625 -1.15203125 1.2940625 0 0 Z " fill="#D12277" transform="translate(143,129)"/>
<path d="M0 0 C0.66 1.32 1.32 2.64 2 4 C1.34 4.66 0.68 5.32 0 6 C-0.66 5.67 -1.32 5.34 -2 5 C-2 6.32 -2 7.64 -2 9 C-1.38511719 8.97679687 -0.77023438 8.95359375 -0.13671875 8.9296875 C0.67152344 8.91164062 1.47976562 8.89359375 2.3125 8.875 C3.11300781 8.85179687 3.91351563 8.82859375 4.73828125 8.8046875 C7 9 7 9 10 11 C9.01 11.495 9.01 11.495 8 12 C8.99 12.33 9.98 12.66 11 13 C11.125 19.625 11.125 19.625 10 23 C7.16493821 24.62003531 5.33246005 25.01414724 2.0625 24.875 C-2.42379391 23.59320174 -5.71909633 21.28090367 -9 18 C-9.56520003 15.34462628 -9.73788198 12.70855287 -10 10 C-8.35 9.67 -6.7 9.34 -5 9 C-4.67 8.01 -4.34 7.02 -4 6 C-5.98 6 -7.96 6 -10 6 C-10 5.01 -10 4.02 -10 3 C-6.535 2.505 -6.535 2.505 -3 2 C-3 2.66 -3 3.32 -3 4 C-2.01 4 -1.02 4 0 4 C0 2.68 0 1.36 0 0 Z " fill="#F5F2F5" transform="translate(93,141)"/>
<path d="M0 0 C6.27 0 12.54 0 19 0 C19.33 3.3 19.66 6.6 20 10 C5.40318907 16.88838269 5.40318907 16.88838269 -2 16 C-1.938125 17.485 -1.938125 17.485 -1.875 19 C-1.8576652 23.23835866 -2.85808838 26.93193985 -4 31 C3.47163951 29.73148932 3.47163951 29.73148932 10.8125 27.875 C14.06750827 26.98146832 16.64377161 26.68779271 20 27 C20.66 27.66 21.32 28.32 22 29 C21.07058594 29.12117188 20.14117187 29.24234375 19.18359375 29.3671875 C11.4735087 30.31906947 11.4735087 30.31906947 3.9375 32.125 C1.11475597 32.96581737 -1.07716118 33.17714175 -4 33 C-4.66 34.32 -5.32 35.64 -6 37 C-5.01 37.66 -4.02 38.32 -3 39 C-5.31 39 -7.62 39 -10 39 C-10.91093654 35.1011916 -11.16432051 31.43828023 -11.1875 27.4375 C-11.20167969 26.32246094 -11.21585938 25.20742187 -11.23046875 24.05859375 C-11.00514664 21.06830201 -10.6875827 19.44699492 -9 17 C-4.09107387 14.28442384 0.69927278 13.43670237 6.19921875 12.5390625 C10.27542443 11.75452082 14.11392509 10.439287 18 9 C18 6.36 18 3.72 18 1 C12.06 1 6.12 1 0 1 C0 0.67 0 0.34 0 0 Z " fill="#DE7BAC" transform="translate(68,86)"/>
<path d="M0 0 C0.53367187 0.19335938 1.06734375 0.38671875 1.6171875 0.5859375 C6.62026307 2.3344172 11.51200261 3.58898595 16.73828125 4.47265625 C20.963686 5.45785425 20.963686 5.45785425 23 7 C24.04407505 9.55842752 24.84438033 11.91488706 25.5625 14.5625 C25.95861459 15.93909624 26.35575835 17.31539673 26.75390625 18.69140625 C27.16511719 20.11324219 27.57632813 21.53507812 28 23 C29.485 27.455 29.485 27.455 31 32 C19.78 32 8.56 32 -3 32 C-3 31.67 -3 31.34 -3 31 C3.435 30.505 3.435 30.505 10 30 C10.33 29.01 10.66 28.02 11 27 C14.96 27 18.92 27 23 27 C20.36 25.68 17.72 24.36 15 23 C16.32 22.67 17.64 22.34 19 22 C19.33 21.01 19.66 20.02 20 19 C20.61875 19.969375 21.2375 20.93875 21.875 21.9375 C23.65678846 25.02835362 23.65678846 25.02835362 26 26 C25.24413113 23.18267056 24.47130111 20.37205641 23.6875 17.5625 C23.36749023 16.35883789 23.36749023 16.35883789 23.04101562 15.13085938 C22.82509766 14.36708984 22.60917969 13.60332031 22.38671875 12.81640625 C22.19295654 12.10943604 21.99919434 11.40246582 21.79956055 10.67407227 C21.53570557 10.12162842 21.27185059 9.56918457 21 9 C20.01 8.67 19.02 8.34 18 8 C17.67 8.99 17.34 9.98 17 11 C16.67 9.02 16.34 7.04 16 5 C14.700625 5.061875 13.40125 5.12375 12.0625 5.1875 C6.94450211 5.21187142 2.71931779 3.87433898 -2 2 C-1.34 1.34 -0.68 0.68 0 0 Z " fill="#DA1C7C" transform="translate(108,96)"/>
<path d="M0 0 C0.33 0 0.66 0 1 0 C1 2.64 1 5.28 1 8 C2.11375 7.401875 3.2275 6.80375 4.375 6.1875 C5.00148438 5.85105469 5.62796875 5.51460937 6.2734375 5.16796875 C8.30502365 3.95236507 8.30502365 3.95236507 10 1 C10.8632601 4.71888866 11.11721556 8.14296488 11.09765625 11.95703125 C11.09443359 13.06884766 11.09121094 14.18066406 11.08789062 15.32617188 C11.07951172 16.47666016 11.07113281 17.62714844 11.0625 18.8125 C11.05798828 19.98232422 11.05347656 21.15214844 11.04882812 22.35742188 C11.0370693 25.23833358 11.02063426 28.11914044 11 31 C9.02 31.33 7.04 31.66 5 32 C5 31.01 5 30.02 5 29 C5.99 29 6.98 29 8 29 C7.98715603 25.57708302 7.85543593 22.32428899 7 19 C4.04990627 17.27487535 4.04990627 17.27487535 1 16 C-0.44830979 10.82746503 -0.10918248 5.34994139 0 0 Z " fill="#CC1D73" transform="translate(106,152)"/>
<path d="M0 0 C6.0546875 1.07421875 6.0546875 1.07421875 8 2 C10.48116858 6.07620552 9.95569483 9.24367845 9.125 13.8125 C8.92132813 14.97394531 8.71765625 16.13539063 8.5078125 17.33203125 C8.25644531 18.65267578 8.25644531 18.65267578 8 20 C5.36 20 2.72 20 0 20 C-1.50156874 16.99686252 -1.09281204 14.20932478 -1.0625 10.875 C-1.05347656 9.59367188 -1.04445313 8.31234375 -1.03515625 6.9921875 C-1.02355469 6.00476563 -1.01195313 5.01734375 -1 4 C-0.34 3.67 0.32 3.34 1 3 C0.67 2.01 0.34 1.02 0 0 Z " fill="#636363" transform="translate(121,159)"/>
<path d="M0 0 C1.45880109 0.14107747 2.91703551 0.28802415 4.375 0.4375 C5.59316406 0.55931641 5.59316406 0.55931641 6.8359375 0.68359375 C9 1 9 1 11 2 C10.84007568 2.85972412 10.68015137 3.71944824 10.51538086 4.60522461 C10.01772152 7.88326968 9.82812315 11.00413357 9.75390625 14.31640625 C9.72103516 15.49267578 9.68816406 16.66894531 9.65429688 17.88085938 C9.59300397 20.3390962 9.53572454 22.79743632 9.48242188 25.25585938 C9.44826172 26.43083984 9.41410156 27.60582031 9.37890625 28.81640625 C9.3538501 29.88318604 9.32879395 30.94996582 9.30297852 32.04907227 C8.99556155 35.04322933 8.25648469 37.27997301 7 40 C6.01 40 5.02 40 4 40 C4.14091893 36.68727224 4.28865394 33.37488029 4.4375 30.0625 C4.49647461 28.67321289 4.49647461 28.67321289 4.55664062 27.25585938 C5.29685012 11.02818969 5.29685012 11.02818969 8 4 C6.35 4 4.7 4 3 4 C2.67 5.32 2.34 6.64 2 8 C1.01 7.01 0.02 6.02 -1 5 C-0.01 4.01 0.98 3.02 2 2 C1.34 2 0.68 2 0 2 C0 1.34 0 0.68 0 0 Z " fill="#BFBCBE" transform="translate(68,142)"/>
<path d="M0 0 C4.62 0 9.24 0 14 0 C14 0.66 14 1.32 14 2 C13.01 2.33 12.02 2.66 11 3 C10.19436362 5.10584438 10.19436362 5.10584438 9.8125 7.5625 C9.65394531 8.38878906 9.49539062 9.21507812 9.33203125 10.06640625 C9.22246094 10.70449219 9.11289063 11.34257812 9 12 C9.66 12.33 10.32 12.66 11 13 C10.01 13.33 9.02 13.66 8 14 C8 18.62 8 23.24 8 28 C7.67 28 7.34 28 7 28 C7 26.35 7 24.7 7 23 C6.34 23 5.68 23 5 23 C4.93941406 22.07058594 4.87882812 21.14117187 4.81640625 20.18359375 C4.20428448 11.05853115 4.20428448 11.05853115 3 2 C2.01 2 1.02 2 0 2 C0 1.34 0 0.68 0 0 Z " fill="#0B0709" transform="translate(112,149)"/>
<path d="M0 0 C-0.33 0.99 -0.66 1.98 -1 3 C-2.81005859 3.78369141 -2.81005859 3.78369141 -5.1484375 4.3515625 C-5.98890625 4.56296875 -6.829375 4.774375 -7.6953125 4.9921875 C-8.57960938 5.20101562 -9.46390625 5.40984375 -10.375 5.625 C-12.11210765 6.05416777 -13.84909207 6.48383473 -15.5859375 6.9140625 C-16.74681885 7.1917749 -16.74681885 7.1917749 -17.93115234 7.47509766 C-19.6413831 7.90901271 -21.32612594 8.44204198 -23 9 C-24.39439664 9.06665376 -25.79169875 9.08538199 -27.1875 9.0625 C-29.0746875 9.0315625 -29.0746875 9.0315625 -31 9 C-30 6.64453125 -30 6.64453125 -28 4 C-25.22860713 2.95774126 -22.865529 2.26141501 -20 1.6875 C-18.86510132 1.4395166 -18.86510132 1.4395166 -17.70727539 1.18652344 C-11.7789796 -0.03076506 -6.0490681 -0.47033791 0 0 Z " fill="#F3E9F1" transform="translate(92,115)"/>
<path d="M0 0 C6.94539479 1.06852228 11.442758 6.28560683 15.97265625 11.1953125 C18.20076051 13.17871166 20.19007968 14.05524343 23 15 C23 16.98 23 18.96 23 21 C21.35 20.67 19.7 20.34 18 20 C18 19.34 18 18.68 18 18 C17.319375 17.835 16.63875 17.67 15.9375 17.5 C11.64890797 15.31008067 8.80490944 11.87999001 6 8 C6 7.34 6 6.68 6 6 C5.01 5.67 4.02 5.34 3 5 C3 4.34 3 3.68 3 3 C2.01 2.67 1.02 2.34 0 2 C0 1.34 0 0.68 0 0 Z " fill="#0E74B4" transform="translate(27,153)"/>
<path d="M0 0 C0.54527344 0.37253906 1.09054688 0.74507812 1.65234375 1.12890625 C6.90132874 4.42185922 10.21106367 5.51695075 16.34765625 4.39453125 C16.89292969 4.26433594 17.43820313 4.13414062 18 4 C18 5.32 18 6.64 18 8 C17.030625 8.433125 16.06125 8.86625 15.0625 9.3125 C11.72268235 10.7014861 11.72268235 10.7014861 11 14 C3.48203593 12.54491018 3.48203593 12.54491018 1.5625 10.375 C0.74644699 6.92944286 0.35246468 3.52464679 0 0 Z " fill="#C84E8A" transform="translate(85,160)"/>
<path d="M0 0 C0.67095703 0.58007812 0.67095703 0.58007812 1.35546875 1.171875 C1.96003906 1.69265625 2.56460938 2.2134375 3.1875 2.75 C4.07501953 3.51570312 4.07501953 3.51570312 4.98046875 4.296875 C7.03359488 6.11161949 7.03359488 6.11161949 9.71875 7.6875 C12 10 12 10 12.48828125 13.890625 C12.45523738 15.3445554 12.39586963 16.79808575 12.3125 18.25 C12.27866211 19.36761719 12.27866211 19.36761719 12.24414062 20.5078125 C12.18543561 22.339409 12.09575757 24.16996653 12 26 C11.67 26 11.34 26 11 26 C11.04382813 25.443125 11.08765625 24.88625 11.1328125 24.3125 C11.12359791 21.58498131 10.91040408 19.58683096 10 17 C7.5432068 14.60180152 5.00370755 12.73179313 2.15234375 10.82421875 C1.44207031 10.22222656 0.73179688 9.62023437 0 9 C0 6 0 3 0 0 Z " fill="#CF1F74" transform="translate(59,140)"/>
<path d="M0 0 C2.8515625 0.53125 2.8515625 0.53125 6 2 C7.14137754 4.66117971 7.80882416 6.72106351 8.375 9.5 C8.53871094 10.18964844 8.70242187 10.87929687 8.87109375 11.58984375 C10 16.45647321 10 16.45647321 10 19 C6.62169447 17.55215477 4.35038972 15.83667724 2 13 C1.25 10.25 1.25 10.25 1 8 C0.01 8.99 -0.98 9.98 -2 11 C-2 8.36 -2 5.72 -2 3 C-1.34 3 -0.68 3 0 3 C0 2.01 0 1.02 0 0 Z " fill="#F3EEF2" transform="translate(124,103)"/>
<path d="M0 0 C0.33 0 0.66 0 1 0 C1 10.66666667 1 21.33333333 1 32 C0.01 32.495 0.01 32.495 -1 33 C-0.67 29.7 -0.34 26.4 0 23 C-0.66 23 -1.32 23 -2 23 C-2 26.63 -2 30.26 -2 34 C-2.33 34 -2.66 34 -3 34 C-3.08735463 29.45845522 -3.14051247 24.91712768 -3.1875 20.375 C-3.21263672 19.08980469 -3.23777344 17.80460937 -3.26367188 16.48046875 C-3.27333984 15.23652344 -3.28300781 13.99257812 -3.29296875 12.7109375 C-3.3086792 11.56931152 -3.32438965 10.42768555 -3.34057617 9.25146484 C-2.95723398 5.5917148 -1.8205057 3.17066161 0 0 Z " fill="#D32177" transform="translate(31,61)"/>
<path d="M0 0 C5.94 0 11.88 0 18 0 C18 1.65 18 3.3 18 5 C12.06 5 6.12 5 0 5 C0 3.35 0 1.7 0 0 Z " fill="#D21C74" transform="translate(87,128)"/>
<path d="M0 0 C6.71700347 -0.31985731 11.75726932 0.5206176 18 3 C17.34 5.31 16.68 7.62 16 10 C15.43152344 9.79503906 14.86304687 9.59007812 14.27734375 9.37890625 C9.4915546 7.70907331 5.04056799 6.53623064 0 6 C0 5.67 0 5.34 0 5 C1.65 4.67 3.3 4.34 5 4 C5.33 3.01 5.66 2.02 6 1 C4.02 1 2.04 1 0 1 C0 0.67 0 0.34 0 0 Z " fill="#D13480" transform="translate(64,30)"/>
<path d="M0 0 C0 6.27 0 12.54 0 19 C-1.98 19.33 -3.96 19.66 -6 20 C-6 19.01 -6 18.02 -6 17 C-5.01 17 -4.02 17 -3 17 C-3.10062489 10.22120153 -3.10062489 10.22120153 -6.0625 4.375 C-6.701875 3.92125 -7.34125 3.4675 -8 3 C-3.375 0 -3.375 0 0 0 Z " fill="#EDECEF" transform="translate(117,164)"/>
<path d="M0 0 C0.33 0.66 0.66 1.32 1 2 C1.99 2.33 2.98 2.66 4 3 C0.87168575 5.08554283 -2.30471302 7.08227226 -5.5 9.0625 C-6.37205078 9.60874023 -6.37205078 9.60874023 -7.26171875 10.16601562 C-9.82780501 11.7544054 -12.12475612 13.04158537 -15 14 C-15.66 13.34 -16.32 12.68 -17 12 C-16.01 11.34 -15.02 10.68 -14 10 C-13.67 9.01 -13.34 8.02 -13 7 C-10.82422337 5.65061396 -8.71387645 4.46148243 -6.4375 3.3125 C-5.82197266 2.99216797 -5.20644531 2.67183594 -4.57226562 2.34179688 C-3.0526445 1.55253629 -1.52688189 0.77512085 0 0 Z " fill="#0D78AF" transform="translate(62,8)"/>
<path d="M0 0 C5.75 -0.125 5.75 -0.125 8 1 C10.0374763 1.22858114 12.08040303 1.41024278 14.125 1.5625 C15.76855469 1.68818359 15.76855469 1.68818359 17.4453125 1.81640625 C18.28835937 1.87699219 19.13140625 1.93757812 20 2 C20 2.66 20 3.32 20 4 C17.03 4.66 14.06 5.32 11 6 C11.33 6.66 11.66 7.32 12 8 C14.52733235 8.65555119 14.52733235 8.65555119 17 9 C16.67 10.32 16.34 11.64 16 13 C14.02 13.33 12.04 13.66 10 14 C9.67 10.7 9.34 7.4 9 4 C6.03 3.01 3.06 2.02 0 1 C0 0.67 0 0.34 0 0 Z " fill="#D69ABA" transform="translate(72,138)"/>
<path d="M0 0 C-0.07001221 0.60078369 -0.14002441 1.20156738 -0.2121582 1.82055664 C-0.89193002 8.04188121 -1.19153773 14.18075191 -1.1875 20.4375 C-1.18886963 21.35329834 -1.19023926 22.26909668 -1.19165039 23.21264648 C-1.1503557 28.95158842 -0.744319 34.351044 0.66015625 39.94140625 C1.04278943 42.25919574 0.71879021 43.78331132 0 46 C-3.38082834 42.74118059 -3.38536411 39.73093887 -3.49235535 35.29571533 C-3.49874527 34.41953552 -3.50513519 33.54335571 -3.51171875 32.640625 C-3.53864555 31.28405792 -3.53864555 31.28405792 -3.56611633 29.90008545 C-3.62021857 27.0167708 -3.65411474 24.13362168 -3.6875 21.25 C-3.72067315 19.29294572 -3.75516281 17.33591328 -3.79101562 15.37890625 C-3.87594504 10.58605693 -3.9427567 5.79325671 -4 1 C-2 0 -2 0 0 0 Z " fill="#2E8EC7" transform="translate(15,74)"/>
<path d="M0 0 C0.66 0.66 1.32 1.32 2 2 C1.96712417 4.72869407 1.43602229 7.2966618 1 10 C0.34 10 -0.32 10 -1 10 C-0.938125 11.11375 -0.938125 11.11375 -0.875 12.25 C-1.00937629 15.20627834 -1.63709196 16.42561815 -3 19 C-3.2475 20.19625 -3.495 21.3925 -3.75 22.625 C-5 26 -5 26 -8.125 27.4375 C-9.07375 27.623125 -10.0225 27.80875 -11 28 C-9.1376114 23.12985382 -6.86731966 18.46504684 -4.56640625 13.79101562 C-2.40308975 9.2647633 -1.08763036 4.89977478 0 0 Z " fill="#1882C5" transform="translate(177,118)"/>
<path d="M0 0 C-0.61216836 3.88315752 -2.48532714 6.32452851 -4.8125 9.4375 C-5.49957031 10.36433594 -6.18664062 11.29117188 -6.89453125 12.24609375 C-13.21490117 20.51299689 -13.21490117 20.51299689 -17 22 C-16.505 20.515 -16.505 20.515 -16 19 C-15.34 19 -14.68 19 -14 19 C-14 18.01 -14 17.02 -14 16 C-13.01 15.319375 -13.01 15.319375 -12 14.625 C-11.34 14.08875 -10.68 13.5525 -10 13 C-10 12.236875 -10 11.47375 -10 10.6875 C-10 6.84383055 -8.31612222 4.97787142 -6 2 C-3 0 -3 0 0 0 Z " fill="#0A6FA9" transform="translate(171,144)"/>
<path d="M0 0 C0.33 1.32 0.66 2.64 1 4 C0.01 4.33 -0.98 4.66 -2 5 C-2 5.66 -2 6.32 -2 7 C-1.01 7 -0.02 7 1 7 C0.14285714 15.57142857 0.14285714 15.57142857 -2 19 C-2.66 19 -3.32 19 -4 19 C-4.33 19.66 -4.66 20.32 -5 21 C-6.84378269 15.46865194 -5.74476069 9.28791581 -3.5625 3.9375 C-2 1 -2 1 0 0 Z " fill="#D01570" transform="translate(161,95)"/>
<path d="M0 0 C0.721875 0.268125 1.44375 0.53625 2.1875 0.8125 C2.1875 1.8025 2.1875 2.7925 2.1875 3.8125 C0.5375 4.1425 -1.1125 4.4725 -2.8125 4.8125 C-2.8125 5.4725 -2.8125 6.1325 -2.8125 6.8125 C-3.3075 7.286875 -3.8025 7.76125 -4.3125 8.25 C-6.15876591 9.81219942 -6.15876591 9.81219942 -5.8125 12.8125 C-9.14583333 15.8125 -9.14583333 15.8125 -11.8125 15.8125 C-11.4825 13.5025 -11.1525 11.1925 -10.8125 8.8125 C-9.4925 8.4825 -8.1725 8.1525 -6.8125 7.8125 C-7.1425 6.8225 -7.4725 5.8325 -7.8125 4.8125 C-3.50480769 -0.23365385 -3.50480769 -0.23365385 0 0 Z " fill="#D01B74" transform="translate(132.8125,143.1875)"/>
<path d="M0 0 C2.95839355 -0.02689449 5.91654427 -0.04678741 8.875 -0.0625 C9.71675781 -0.07087891 10.55851562 -0.07925781 11.42578125 -0.08789062 C12.23144531 -0.09111328 13.03710938 -0.09433594 13.8671875 -0.09765625 C14.98262939 -0.10551147 14.98262939 -0.10551147 16.12060547 -0.11352539 C18 0 18 0 20 1 C20 2.32 20 3.64 20 5 C20.66 5.33 21.32 5.66 22 6 C22.33 5.34 22.66 4.68 23 4 C24.32 4.66 25.64 5.32 27 6 C21.62374766 6.84888195 17.34629602 7.0024305 12 6 C12 6.66 12 7.32 12 8 C11.01 7.67 10.02 7.34 9 7 C9.33 5.68 9.66 4.36 10 3 C11.32 2.67 12.64 2.34 14 2 C7.07 1.505 7.07 1.505 0 1 C0 0.67 0 0.34 0 0 Z " fill="#F4E5EF" transform="translate(87,133)"/>
<path d="M0 0 C2.0625 0.4375 2.0625 0.4375 4 1 C4 1.66 4 2.32 4 3 C4.66 3 5.32 3 6 3 C6 4.65 6 6.3 6 8 C4.68 7.67 3.36 7.34 2 7 C2.02320312 7.56847656 2.04640625 8.13695312 2.0703125 8.72265625 C2.19191688 13.92558648 1.67723492 18.07312243 0 23 C-0.33 23 -0.66 23 -1 23 C-0.67 18.38 -0.34 13.76 0 9 C-1.32 8.67 -2.64 8.34 -4 8 C-2.68 8 -1.36 8 0 8 C-0.2784375 6.2984375 -0.2784375 6.2984375 -0.5625 4.5625 C-0.706875 3.386875 -0.85125 2.21125 -1 1 C-0.67 0.67 -0.34 0.34 0 0 Z " fill="#150F12" transform="translate(104,145)"/>
<path d="M0 0 C2.00720923 0.28674418 4.0085944 0.61866701 6 1 C4.54410902 5.80444022 1.73095643 9.67962729 -2 13 C-4.1953125 13.703125 -4.1953125 13.703125 -6 14 C-6 13.34 -6 12.68 -6 12 C-4.68 11.67 -3.36 11.34 -2 11 C-2.391875 10.46375 -2.78375 9.9275 -3.1875 9.375 C-4 7 -4 7 -2.6875 3.8125 C-1 1 -1 1 0 0 Z " fill="#D01871" transform="translate(143,129)"/>
<path d="M0 0 C0.53367187 0.19335938 1.06734375 0.38671875 1.6171875 0.5859375 C6.62026307 2.3344172 11.51200261 3.58898595 16.73828125 4.47265625 C20.97403619 5.46026751 20.97403619 5.46026751 23 7 C24.00482058 9.56199867 24.73632681 11.85123912 25.375 14.5 C25.56449219 15.18964844 25.75398438 15.87929687 25.94921875 16.58984375 C26.4609375 18.59375 26.4609375 18.59375 27 22 C26.34 22.66 25.68 23.32 25 24 C24.74605469 22.92878906 24.49210937 21.85757813 24.23046875 20.75390625 C23.88348742 19.35660306 23.53579423 17.95947651 23.1875 16.5625 C23.02185547 15.85544922 22.85621094 15.14839844 22.68554688 14.41992188 C22.22048061 12.58598132 21.6181087 10.78817399 21 9 C20.01 8.67 19.02 8.34 18 8 C17.67 8.99 17.34 9.98 17 11 C16.67 9.02 16.34 7.04 16 5 C14.700625 5.061875 13.40125 5.12375 12.0625 5.1875 C6.94450211 5.21187142 2.71931779 3.87433898 -2 2 C-1.34 1.34 -0.68 0.68 0 0 Z " fill="#DD66A0" transform="translate(108,96)"/>
<path d="M0 0 C0.99 0 1.98 0 3 0 C2.14791503 11.34618411 2.14791503 11.34618411 0 16 C-0.99 16.33 -1.98 16.66 -3 17 C-2.88556397 14.9160597 -2.75804453 12.83283507 -2.625 10.75 C-2.55539063 9.58984375 -2.48578125 8.4296875 -2.4140625 7.234375 C-2.03751692 4.29305666 -1.5225877 2.50050989 0 0 Z " fill="#F3E5EF" transform="translate(61,104)"/>
<path d="M0 0 C6.33393082 -0.34548714 11.10261508 0.70657253 17 3 C16.67 3.99 16.34 4.98 16 6 C13.93728361 5.6889315 11.87483534 5.37608484 9.8125 5.0625 C8.66394531 4.88847656 7.51539062 4.71445313 6.33203125 4.53515625 C3.53674788 4.08620687 0.77066414 3.57917838 -2 3 C-1.34 2.67 -0.68 2.34 0 2 C0 1.34 0 0.68 0 0 Z " fill="#F6F4F6" transform="translate(103,115)"/>
<path d="M0 0 C0.66 0.33 1.32 0.66 2 1 C0.71937515 2.7074998 -0.61767557 4.37373596 -2 6 C-2.66 6 -3.32 6 -4 6 C-4.66 7.98 -5.32 9.96 -6 12 C-6.33 11.34 -6.66 10.68 -7 10 C-7.99 10 -8.98 10 -10 10 C-10 10.66 -10 11.32 -10 12 C-9.34 12.33 -8.68 12.66 -8 13 C-8.33 13.66 -8.66 14.32 -9 15 C-10.98 15 -12.96 15 -15 15 C-10.84141548 8.72135278 -6.12355656 4.35452911 0 0 Z " fill="#F4E9F1" transform="translate(114,39)"/>
<path d="M0 0 C-0.99 0.495 -0.99 0.495 -2 1 C-2 1.66 -2 2.32 -2 3 C-1.01 3.66 -0.02 4.32 1 5 C-0.953125 5.22786458 -2.90625 5.45572917 -4.859375 5.68359375 C-6.99824184 5.94820348 -6.99824184 5.94820348 -9 6.59375 C-12.53323456 7.31143827 -15.58138246 5.9686083 -19 5 C-19 4.67 -19 4.34 -19 4 C-16.77332235 3.32506659 -14.54354023 2.66036956 -12.3125 2 C-10.45044922 1.443125 -10.45044922 1.443125 -8.55078125 0.875 C-5.4989981 0.12296543 -3.11101638 -0.19034899 0 0 Z " fill="#EFE0EA" transform="translate(105,114)"/>
<path d="M0 0 C0.33 0 0.66 0 1 0 C1 2.97 1 5.94 1 9 C1.99 9 2.98 9 4 9 C2.35 12.3 0.7 15.6 -1 19 C-2 16 -2 16 -1 13 C-2.32 13 -3.64 13 -5 13 C-3.58192622 8.52761347 -1.88695626 4.28853694 0 0 Z " fill="#D32D7E" transform="translate(155,106)"/>
<path d="M0 0 C1.45880109 0.14107747 2.91703551 0.28802415 4.375 0.4375 C5.59316406 0.55931641 5.59316406 0.55931641 6.8359375 0.68359375 C9 1 9 1 11 2 C10.40049704 5.68266103 9.75241109 9.34543185 9 13 C8.34 12.67 7.68 12.34 7 12 C7.33 9.36 7.66 6.72 8 4 C6.35 4 4.7 4 3 4 C2.67 5.32 2.34 6.64 2 8 C1.01 7.01 0.02 6.02 -1 5 C-0.01 4.01 0.98 3.02 2 2 C1.34 2 0.68 2 0 2 C0 1.34 0 0.68 0 0 Z " fill="#CBC7CB" transform="translate(68,142)"/>
<path d="M0 0 C3.26068667 4.12556392 5.70488835 8.65187429 8.28125 13.22265625 C9.71281207 15.53593042 10.9771728 17.21769189 13 19 C12.67 19.66 12.34 20.32 12 21 C10.02 20.01 8.04 19.02 6 18 C6 16.35 6 14.7 6 13 C5.01 12.67 4.02 12.34 3 12 C2.4375 10.0625 2.4375 10.0625 2 8 C1.34 7.34 0.68 6.68 0 6 C-0.125 2.875 -0.125 2.875 0 0 Z " fill="#2588C4" transform="translate(21,135)"/>
<path d="M0 0 C0.33 0 0.66 0 1 0 C1.33 8.25 1.66 16.5 2 25 C1.01 25.33 0.02 25.66 -1 26 C-1 25.01 -1 24.02 -1 23 C-1.66 23 -2.32 23 -3 23 C-3 19.37 -3 15.74 -3 12 C-2.34 12 -1.68 12 -1 12 C-1 14.97 -1 17.94 -1 21 C-0.67 14.07 -0.34 7.14 0 0 Z " fill="#CC0F68" transform="translate(32,72)"/>
<path d="M0 0 C6.27 0 12.54 0 19 0 C19 0.33 19 0.66 19 1 C11.08 1.495 11.08 1.495 3 2 C6.96 2.33 10.92 2.66 15 3 C15 3.33 15 3.66 15 4 C10.71 4 6.42 4 2 4 C1.67 8.29 1.34 12.58 1 17 C0.67 17 0.34 17 0 17 C0 11.39 0 5.78 0 0 Z " fill="#CC2679" transform="translate(68,69)"/>
<path d="M0 0 C3.84235498 1.13524124 7.1258669 2.1258669 10 5 C10 7 10 9 10 11 C6.27566618 9.7874262 2.62197194 8.49140021 -1 7 C-0.01 6.01 0.98 5.02 2 4 C1.34 2.68 0.68 1.36 0 0 Z " fill="#D02979" transform="translate(131,30)"/>
<path d="M0 0 C3.66666667 0 7.33333333 0 11 0 C13 2 13 2 13.125 4.625 C13.08375 5.40875 13.0425 6.1925 13 7 C10 6 10 6 9 5 C7.48530552 4.76807135 5.96245438 4.58784762 4.4375 4.4375 C3.61121094 4.35371094 2.78492187 4.26992187 1.93359375 4.18359375 C1.29550781 4.12300781 0.65742187 4.06242188 0 4 C0 2.68 0 1.36 0 0 Z " fill="#BA6E97" transform="translate(91,146)"/>
<path d="M0 0 C1.32 0 2.64 0 4 0 C4.375 2.25 4.375 2.25 4 5 C-0.97297297 9 -0.97297297 9 -4 9 C-4 6.36 -4 3.72 -4 1 C-2.68 1.33 -1.36 1.66 0 2 C0 1.34 0 0.68 0 0 Z " fill="#EEEAED" transform="translate(111,151)"/>
<path d="M0 0 C0.66 0 1.32 0 2 0 C0.83348574 5.92863717 -0.75519358 11.38798394 -3 17 C-3.66 17 -4.32 17 -5 17 C-5.33 18.32 -5.66 19.64 -6 21 C-6.33 20.34 -6.66 19.68 -7 19 C-6.67 18.34 -6.34 17.68 -6 17 C-6.66 16.67 -7.32 16.34 -8 16 C-7.34 16 -6.68 16 -6 16 C-5.34 13.36 -4.68 10.72 -4 8 C-3.34 8 -2.68 8 -2 8 C-1.7834375 6.576875 -1.7834375 6.576875 -1.5625 5.125 C-1 2 -1 2 0 0 Z " fill="#0565A1" transform="translate(180,120)"/>
<path d="M0 0 C0.8971875 0.5259375 0.8971875 0.5259375 1.8125 1.0625 C0.36032324 2.56846108 -1.09942861 4.06712104 -2.5625 5.5625 C-3.37460938 6.3978125 -4.18671875 7.233125 -5.0234375 8.09375 C-7.1875 10.0625 -7.1875 10.0625 -9.1875 10.0625 C-9.5175 9.0725 -9.8475 8.0825 -10.1875 7.0625 C-9.5275 6.7325 -8.8675 6.4025 -8.1875 6.0625 C-7.713125 5.0725 -7.23875 4.0825 -6.75 3.0625 C-4.9406235 -0.41150289 -3.80893215 -1.63239949 0 0 Z " fill="#F8ECF3" transform="translate(104.1875,35.9375)"/>
<path d="M0 0 C4.89647119 0.75330326 8.74715297 3.49658356 11.875 7.25 C12.24625 7.8275 12.6175 8.405 13 9 C11.35 9.33 9.7 9.66 8 10 C7.731875 9.360625 7.46375 8.72125 7.1875 8.0625 C6.11332248 5.66868314 6.11332248 5.66868314 3 5 C3 4.34 3 3.68 3 3 C2.01 2.67 1.02 2.34 0 2 C0 1.34 0 0.68 0 0 Z " fill="#107AB9" transform="translate(27,153)"/>
<path d="M0 0 C1.90389849 2.85584773 2.69462177 4.9311762 3.625 8.1875 C3.88539062 9.08855469 4.14578125 9.98960937 4.4140625 10.91796875 C4.60742188 11.60503906 4.80078125 12.29210937 5 13 C2 13 2 13 -1 12 C-1.73046875 9.93359375 -1.73046875 9.93359375 -2.1875 7.4375 C-2.34605469 6.61121094 -2.50460937 5.78492187 -2.66796875 4.93359375 C-2.77753906 4.29550781 -2.88710937 3.65742187 -3 3 C-2.01 3 -1.02 3 0 3 C0 2.01 0 1.02 0 0 Z " fill="#1C81B9" transform="translate(16,122)"/>
<path d="M0 0 C18.81 0.495 18.81 0.495 38 1 C38 2.65 38 4.3 38 6 C37.505 4.02 37.505 4.02 37 2 C20.665 2.495 20.665 2.495 4 3 C3.67 3.66 3.34 4.32 3 5 C2.01 3.35 1.02 1.7 0 0 Z " fill="#EDBDD7" transform="translate(49,127)"/>
<path d="M0 0 C0.98484375 0.02707031 1.9696875 0.05414063 2.984375 0.08203125 C3.73203125 0.11683594 4.4796875 0.15164062 5.25 0.1875 C4.92 1.1775 4.59 2.1675 4.25 3.1875 C-0.130916 4.88012664 -5.07624426 5.48903263 -9.75 5.1875 C-9.75 4.5275 -9.75 3.8675 -9.75 3.1875 C-6.61307852 0.10286055 -4.30486563 -0.1537452 0 0 Z " fill="#F4F2F4" transform="translate(86.75,114.8125)"/>
<path d="M0 0 C0.66 0.33 1.32 0.66 2 1 C2 1.66 2 2.32 2 3 C2.99 2.67 3.98 2.34 5 2 C6.32 3.65 7.64 5.3 9 7 C6.3223255 9.94544195 4.06218407 11.87729807 -0.03515625 12.12109375 C-2.02384409 12.12460114 -4.01241298 12.0662529 -6 12 C-6 11.67 -6 11.34 -6 11 C-5.071875 10.87625 -4.14375 10.7525 -3.1875 10.625 C0.13925235 10.18466918 0.13925235 10.18466918 3 8 C3 7.34 3 6.68 3 6 C2.34 6 1.68 6 1 6 C0.67 4.02 0.34 2.04 0 0 Z " fill="#D02D7D" transform="translate(93,43)"/>
<path d="M0 0 C0 1.32 0 2.64 0 4 C3.63 4.33 7.26 4.66 11 5 C11 5.33 11 5.66 11 6 C6.71 6 2.42 6 -2 6 C-2.66 7.32 -3.32 8.64 -4 10 C-4 8.35 -4 6.7 -4 5 C-4.66 5 -5.32 5 -6 5 C-5.625 3.0625 -5.625 3.0625 -5 1 C-3 0 -3 0 0 0 Z " fill="#D4BCC9" transform="translate(114,143)"/>
<path d="M0 0 C0.66 0.99 1.32 1.98 2 3 C-0.64 6.63 -3.28 10.26 -6 14 C-6.66 13.67 -7.32 13.34 -8 13 C-8 12.34 -8 11.68 -8 11 C-7.34 11 -6.68 11 -6 11 C-5.938125 9.741875 -5.87625 8.48375 -5.8125 7.1875 C-5.5546875 4.98046875 -5.5546875 4.98046875 -5 3 C-2.4375 1 -2.4375 1 0 0 Z " fill="#0D79BE" transform="translate(32,33)"/>
<path d="M0 0 C0 4.29 0 8.58 0 13 C-1.32 12.67 -2.64 12.34 -4 12 C-4 8.37 -4 4.74 -4 1 C-1 0 -1 0 0 0 Z " fill="#F1F3F3" transform="translate(129,166)"/>
<path d="M0 0 C0.66 0.33 1.32 0.66 2 1 C1.835 2.2375 1.67 3.475 1.5 4.75 C0.60397811 13.45781841 0.91728495 22.25765509 1 31 C0.67 31 0.34 31 0 31 C-0.06058594 29.82824219 -0.12117187 28.65648437 -0.18359375 27.44921875 C-0.26792516 25.86196299 -0.35258223 24.2747245 -0.4375 22.6875 C-0.48044189 21.86894531 -0.52338379 21.05039063 -0.56762695 20.20703125 C-0.86524439 14.76733517 -1.31931742 9.37448565 -2.01171875 3.96875 C-2 2 -2 2 0 0 Z " fill="#3790C5" transform="translate(180,71)"/>
<path d="M0 0 C0.66 0 1.32 0 2 0 C2.02712153 1.916588 2.04645097 3.8332873 2.0625 5.75 C2.07410156 6.81734375 2.08570312 7.8846875 2.09765625 8.984375 C2.01510087 11.53368501 1.74617558 13.57933591 1 16 C0.01 16 -0.98 16 -2 16 C-1.85833643 14.08302063 -1.71150416 12.16642277 -1.5625 10.25 C-1.48128906 9.18265625 -1.40007812 8.1153125 -1.31640625 7.015625 C-1.05909227 4.56320038 -0.68187782 2.36078709 0 0 Z " fill="#EEF1F2" transform="translate(74,166)"/>
<path d="M0 0 C2.23495428 2.23495428 3.0024791 4.02414536 4.1875 6.9375 C4.55230469 7.81277344 4.91710938 8.68804687 5.29296875 9.58984375 C6 12 6 12 5 15 C4.01 14.67 3.02 14.34 2 14 C1.67 12.02 1.34 10.04 1 8 C0.01 9.32 -0.98 10.64 -2 12 C-3.15957207 8.52128379 -2.77456651 7.65780355 -1.5625 4.3125 C-1.13130859 3.10013672 -1.13130859 3.10013672 -0.69140625 1.86328125 C-0.46324219 1.24839844 -0.23507813 0.63351563 0 0 Z " fill="#D1297B" transform="translate(36,102)"/>
<path d="M0 0 C1.65 0 3.3 0 5 0 C4.855625 0.804375 4.71125 1.60875 4.5625 2.4375 C3.90311661 6.61359481 3.43908647 10.79598059 3 15 C2.67 15 2.34 15 2 15 C1.67 13.35 1.34 11.7 1 10 C0.67 10 0.34 10 0 10 C0 6.7 0 3.4 0 0 Z " fill="#130B0F" transform="translate(71,146)"/>
<path d="M0 0 C0.66 0 1.32 0 2 0 C2.27714844 0.63808594 2.55429688 1.27617188 2.83984375 1.93359375 C3.20207031 2.75988281 3.56429688 3.58617188 3.9375 4.4375 C4.47697266 5.67306641 4.47697266 5.67306641 5.02734375 6.93359375 C5.83122323 8.94410117 5.83122323 8.94410117 7 10 C7.04063832 11.66617115 7.042721 13.33388095 7 15 C5.68 15 4.36 15 3 15 C2.01 10.05 1.02 5.1 0 0 Z " fill="#076CB1" transform="translate(9,110)"/>
<path d="M0 0 C0.66 1.32 1.32 2.64 2 4 C0.625 5.5 0.625 5.5 -1 7 C-1.66 7 -2.32 7 -3 7 C-3 7.99 -3 8.98 -3 10 C-5.31 10.66 -7.62 11.32 -10 12 C-9.61328125 11.55269531 -9.2265625 11.10539063 -8.828125 10.64453125 C-5.81609925 7.1478974 -2.85678969 3.62592537 0 0 Z " fill="#1D85C4" transform="translate(160,153)"/>
<path d="M0 0 C2.97 1.65 5.94 3.3 9 5 C9 5.99 9 6.98 9 8 C6.36 8 3.72 8 1 8 C0.67 5.36 0.34 2.72 0 0 Z " fill="#C61B6E" transform="translate(85,160)"/>
<path d="M0 0 C2.04219706 1.69179328 2.91793306 2.63727666 3.51171875 5.26171875 C3.56972656 6.06222656 3.62773438 6.86273438 3.6875 7.6875 C3.75324219 8.49574219 3.81898437 9.30398437 3.88671875 10.13671875 C3.92410156 10.75160156 3.96148437 11.36648437 4 12 C3.01 12.495 3.01 12.495 2 13 C1.67 11.35 1.34 9.7 1 8 C0.01 8.99 -0.98 9.98 -2 11 C-2 8.36 -2 5.72 -2 3 C-1.34 3 -0.68 3 0 3 C0 2.01 0 1.02 0 0 Z " fill="#E9C8D9" transform="translate(124,103)"/>
<path d="M0 0 C2 1 2 1 3 3 C2.34 3 1.68 3 1 3 C0.67 4.32 0.34 5.64 0 7 C0.66 7.33 1.32 7.66 2 8 C0.02 8.33 -1.96 8.66 -4 9 C-4.33 8.01 -4.66 7.02 -5 6 C-4.34 6 -3.68 6 -3 6 C-3 5.01 -3 4.02 -3 3 C-3.66 2.67 -4.32 2.34 -5 2 C-2.625 0.9375 -2.625 0.9375 0 0 Z " fill="#D0267A" transform="translate(117,30)"/>
<path d="M0 0 C0.66 0.33 1.32 0.66 2 1 C1.505 1.598125 1.01 2.19625 0.5 2.8125 C-1.28276418 4.97029994 -1.28276418 4.97029994 -1 8 C-2.98 8.66 -4.96 9.32 -7 10 C-7.66 9.01 -8.32 8.02 -9 7 C-6.03 4.69 -3.06 2.38 0 0 Z " fill="#E8F2F3" transform="translate(51,19)"/>
<path d="M0 0 C0.33 0.66 0.66 1.32 1 2 C2.88764903 2.68472665 2.88764903 2.68472665 5.0625 3.125 C5.79597656 3.29257813 6.52945313 3.46015625 7.28515625 3.6328125 C7.85105469 3.75398437 8.41695312 3.87515625 9 4 C8.01 4.495 8.01 4.495 7 5 C6.67 5.99 6.34 6.98 6 8 C1.25 7.25 1.25 7.25 -1 5 C-0.625 2.375 -0.625 2.375 0 0 Z " fill="#1978AE" transform="translate(54,172)"/>
<path d="M0 0 C3.20575987 0.34347427 3.97516759 0.9707854 6.125 3.5 C6.74375 4.325 7.3625 5.15 8 6 C8.66 6.33 9.32 6.66 10 7 C10 7.99 10 8.98 10 10 C9.34 10 8.68 10 8 10 C8 9.34 8 8.68 8 8 C5.03 7.505 5.03 7.505 2 7 C1.34 4.69 0.68 2.38 0 0 Z " fill="#056CA6" transform="translate(149,20)"/>
<path d="M0 0 C0.33 0 0.66 0 1 0 C1 2.64 1 5.28 1 8 C2.11375 7.401875 3.2275 6.80375 4.375 6.1875 C5.00148438 5.85105469 5.62796875 5.51460937 6.2734375 5.16796875 C8.30502365 3.95236507 8.30502365 3.95236507 10 1 C10.33 4.3 10.66 7.6 11 11 C10.01 9.68 9.02 8.36 8 7 C7.4225 7.515625 6.845 8.03125 6.25 8.5625 C5.5075 9.036875 4.765 9.51125 4 10 C2.68 9.67 1.36 9.34 0 9 C0 6.03 0 3.06 0 0 Z " fill="#A33B6D" transform="translate(106,152)"/>
<path d="M0 0 C0.66 0 1.32 0 2 0 C2.05437607 1.58294782 2.09296271 3.16644256 2.125 4.75 C2.14820313 5.63171875 2.17140625 6.5134375 2.1953125 7.421875 C1.99139502 10.1135858 1.36551721 11.69904974 0 14 C-0.66 14 -1.32 14 -2 14 C-1.85866501 12.22880197 -1.71176792 10.45804713 -1.5625 8.6875 C-1.48128906 7.70136719 -1.40007813 6.71523437 -1.31640625 5.69921875 C-1 3 -1 3 0 0 Z " fill="#DE378A" transform="translate(56,110)"/>
<path d="M0 0 C0.33 2.31 0.66 4.62 1 7 C-0.29315061 6.04367001 -1.58446853 5.08486149 -2.875 4.125 C-3.59429687 3.59132813 -4.31359375 3.05765625 -5.0546875 2.5078125 C-7 1 -7 1 -9 -1 C-5.79937313 -2.60031344 -3.27728194 -1.03173691 0 0 Z " fill="#1F84C2" transform="translate(149,19)"/>
<path d="M0 0 C2.64745321 0.28056438 5.29237964 0.57385631 7.9375 0.875 C8.69224609 0.95363281 9.44699219 1.03226562 10.22460938 1.11328125 C12.15919299 1.33883808 14.08176019 1.66258974 16 2 C16.33 2.66 16.66 3.32 17 4 C12.71 4 8.42 4 4 4 C4 3.34 4 2.68 4 2 C2.68 1.67 1.36 1.34 0 1 C0 0.67 0 0.34 0 0 Z " fill="#086AA4" transform="translate(106,2)"/>
<path d="M0 0 C0.33 0 0.66 0 1 0 C1.02685412 2.31243792 1.04632841 4.6249627 1.0625 6.9375 C1.07410156 8.22527344 1.08570312 9.51304687 1.09765625 10.83984375 C1 14 1 14 0 15 C-1.99958364 15.04080783 -4.00045254 15.04254356 -6 15 C-6 14.01 -6 13.02 -6 12 C-4.02 11.67 -2.04 11.34 0 11 C0 7.37 0 3.74 0 0 Z " fill="#3B7BA3" transform="translate(117,172)"/>
<path d="M0 0 C0.99 0 1.98 0 3 0 C2.01 3.63 1.02 7.26 0 11 C-1.32 11.33 -2.64 11.66 -4 12 C-3.33989524 9.15449988 -2.48275034 6.47674001 -1.4375 3.75 C-1.16808594 3.04359375 -0.89867187 2.3371875 -0.62109375 1.609375 C-0.41613281 1.07828125 -0.21117187 0.5471875 0 0 Z " fill="#107BBA" transform="translate(15,63)"/>
<path d="M0 0 C0.33 0 0.66 0 1 0 C1 4.62 1 9.24 1 14 C1.99 14.33 2.98 14.66 4 15 C0.98968256 15.93423645 0.13349732 16.04449911 -3 15 C-3 14.34 -3 13.68 -3 13 C-2.34 13 -1.68 13 -1 13 C-0.67 8.71 -0.34 4.42 0 0 Z " fill="#162228" transform="translate(130,166)"/>
<path d="M0 0 C0.598125 0.309375 1.19625 0.61875 1.8125 0.9375 C4.08956772 2.10209704 4.08956772 2.10209704 7 3 C6.67 4.32 6.34 5.64 6 7 C4.02 7.33 2.04 7.66 0 8 C0 5.36 0 2.72 0 0 Z " fill="#B87094" transform="translate(82,144)"/>
<path d="M0 0 C4.50621146 1.10529715 6.65094547 1.65094547 10 5 C7.03 5 4.06 5 1 5 C1 4.34 1 3.68 1 3 C0.34 2.67 -0.32 2.34 -1 2 C-0.67 1.34 -0.34 0.68 0 0 Z " fill="#F2DFEB" transform="translate(122,119)"/>
<path d="M0 0 C1.63001953 0.15275391 1.63001953 0.15275391 3.29296875 0.30859375 C4.54013672 0.43427734 4.54013672 0.43427734 5.8125 0.5625 C5.8125 1.2225 5.8125 1.8825 5.8125 2.5625 C3.1725 2.8925 0.5325 3.2225 -2.1875 3.5625 C-2.5175 2.5725 -2.8475 1.5825 -3.1875 0.5625 C-3.1875 1.5525 -3.1875 2.5425 -3.1875 3.5625 C-3.8475 3.5625 -4.5075 3.5625 -5.1875 3.5625 C-5.1875 2.9025 -5.1875 2.2425 -5.1875 1.5625 C-6.5075 1.2325 -7.8275 0.9025 -9.1875 0.5625 C-5.76060364 -0.57979879 -3.57647782 -0.34611076 0 0 Z " fill="#D71779" transform="translate(78.1875,122.4375)"/>
<path d="M0 0 C1.32 0.66 2.64 1.32 4 2 C4 7.28 4 12.56 4 18 C3.67 18 3.34 18 3 18 C2.67 13.38 2.34 8.76 2 4 C1.01 4 0.02 4 -1 4 C-0.67 2.68 -0.34 1.36 0 0 Z " fill="#B1306F" transform="translate(67,148)"/>
<path d="M0 0 C3.5625 0.1875 3.5625 0.1875 5.5625 2.1875 C5.2325 2.8475 4.9025 3.5075 4.5625 4.1875 C1.1875 4.375 1.1875 4.375 -2.4375 4.1875 C-3.0975 3.1975 -3.7575 2.2075 -4.4375 1.1875 C-3.4375 0.1875 -3.4375 0.1875 0 0 Z " fill="#43323A" transform="translate(71.4375,138.8125)"/>
<path d="M0 0 C2.64 0 5.28 0 8 0 C7.484375 0.556875 6.96875 1.11375 6.4375 1.6875 C4.70523302 3.94085007 4.70523302 3.94085007 5.3125 6.75 C5.539375 7.4925 5.76625 8.235 6 9 C0.42857143 3.85714286 0.42857143 3.85714286 0 0 Z " fill="#F6F3F5" transform="translate(52,129)"/>
<path d="M0 0 C0.33 1.32 0.66 2.64 1 4 C0.01 4.33 -0.98 4.66 -2 5 C-2 5.66 -2 6.32 -2 7 C-1.01 7 -0.02 7 1 7 C0.67 8.65 0.34 10.3 0 12 C-1.32 11.01 -2.64 10.02 -4 9 C-3.71848913 7.68528432 -3.42446661 6.37324233 -3.125 5.0625 C-2.96257812 4.33160156 -2.80015625 3.60070312 -2.6328125 2.84765625 C-2 1 -2 1 0 0 Z " fill="#CE1470" transform="translate(161,95)"/>
<path d="M0 0 C-0.96355353 10.55808656 -0.96355353 10.55808656 -2 15 C-2.33 15 -2.66 15 -3 15 C-3.33 10.38 -3.66 5.76 -4 1 C-2 0 -2 0 0 0 Z " fill="#1E87C3" transform="translate(15,74)"/>
<path d="M0 0 C0.33 0 0.66 0 1 0 C1 2.97 1 5.94 1 9 C0.01 9.495 0.01 9.495 -1 10 C-2.13350534 12.01669827 -2.13350534 12.01669827 -3 14 C-3.29341888 8.32723489 -3.00559652 5.00932754 0 0 Z " fill="#D63B87" transform="translate(31,61)"/>
<path d="M0 0 C2.33333333 0 4.66666667 0 7 0 C7 0.66 7 1.32 7 2 C5.46875 3.2890625 5.46875 3.2890625 3.5 4.625 C2.8503125 5.07101563 2.200625 5.51703125 1.53125 5.9765625 C0.77328125 6.48316406 0.77328125 6.48316406 0 7 C-1.32 6.34 -2.64 5.68 -4 5 C-3.01 4.34 -2.02 3.68 -1 3 C-0.67 2.01 -0.34 1.02 0 0 Z " fill="#1382C1" transform="translate(49,15)"/>
<path d="M0 0 C2.31 0 4.62 0 7 0 C7.33 1.32 7.66 2.64 8 4 C5.36 4 2.72 4 0 4 C0 2.68 0 1.36 0 0 Z " fill="#DF94B9" transform="translate(114,139)"/>
<path d="M0 0 C0.66 0.33 1.32 0.66 2 1 C2 2.32 2 3.64 2 5 C2.66 5 3.32 5 4 5 C3.67 5.99 3.34 6.98 3 8 C1.125 7.6875 1.125 7.6875 -1 7 C-1.66 6.01 -2.32 5.02 -3 4 C-2.01 2.68 -1.02 1.36 0 0 Z " fill="#F4ECF1" transform="translate(66,139)"/>
<path d="M0 0 C0.598125 0.763125 1.19625 1.52625 1.8125 2.3125 C3.46959332 4.3483575 5.10297674 6.1978279 7 8 C6.67 8.66 6.34 9.32 6 10 C4.68 9.67 3.36 9.34 2 9 C2.66 8.67 3.32 8.34 4 8 C1.36 6.68 -1.28 5.36 -4 4 C-2.68 3.67 -1.36 3.34 0 3 C0 2.01 0 1.02 0 0 Z " fill="#D75799" transform="translate(127,115)"/>
<path d="M0 0 C2.475 0.99 2.475 0.99 5 2 C5 3.32 5 4.64 5 6 C3.02 6 1.04 6 -1 6 C-0.67 4.02 -0.34 2.04 0 0 Z " fill="#ECEFEF" transform="translate(94,179)"/>
<path d="M0 0 C0.33 0.66 0.66 1.32 1 2 C1.66 2 2.32 2 3 2 C2.67 3.65 2.34 5.3 2 7 C0.02 7.66 -1.96 8.32 -4 9 C-2.80100302 5.9168649 -1.52299523 2.93720508 0 0 Z " fill="#2087C1" transform="translate(170,137)"/>
<path d="M0 0 C0.99 0 1.98 0 3 0 C2.67 2.97 2.34 5.94 2 9 C1.67 8.34 1.34 7.68 1 7 C0.34 7 -0.32 7 -1 7 C-1.04254356 5.00045254 -1.04080783 2.99958364 -1 1 C-0.67 0.67 -0.34 0.34 0 0 Z " fill="#F5F7F7" transform="translate(61,104)"/>
<path d="M0 0 C0.66 0 1.32 0 2 0 C2.33 1.98 2.66 3.96 3 6 C3.99 5.67 4.98 5.34 6 5 C5.67 6.65 5.34 8.3 5 10 C4.01 9.67 3.02 9.34 2 9 C1.28272222 7.35448038 0.61674772 5.68577711 0 4 C-0.66 3.34 -1.32 2.68 -2 2 C-1.34 2 -0.68 2 0 2 C0 1.34 0 0.68 0 0 Z " fill="#D31371" transform="translate(91,43)"/>
<path d="M0 0 C1.65 0 3.3 0 5 0 C5.33 1.65 5.66 3.3 6 5 C4 6 4 6 0.875 5.0625 C-0.07375 4.711875 -1.0225 4.36125 -2 4 C-1.34 2.68 -0.68 1.36 0 0 Z " fill="#D0146E" transform="translate(74,32)"/>
<path d="M0 0 C2.475 0.495 2.475 0.495 5 1 C5 1.66 5 2.32 5 3 C5.99 2.67 6.98 2.34 8 2 C8.33 3.32 8.66 4.64 9 6 C8.34 6 7.68 6 7 6 C6.67 6.66 6.34 7.32 6 8 C4.02 5.36 2.04 2.72 0 0 Z " fill="#1383C5" transform="translate(152,27)"/>
<path d="M0 0 C1.16015625 0.27263672 1.16015625 0.27263672 2.34375 0.55078125 C3.1171875 0.71964844 3.890625 0.88851563 4.6875 1.0625 C7.05808885 1.94288173 8.21062964 2.96320853 9.84375 4.86328125 C8.85375 5.35828125 8.85375 5.35828125 7.84375 5.86328125 C6.5134375 5.18265625 6.5134375 5.18265625 5.15625 4.48828125 C1.63459238 2.76067563 -1.27736921 2.25116933 -5.15625 1.86328125 C-2.15625 -0.13671875 -2.15625 -0.13671875 0 0 Z " fill="#1F86C4" transform="translate(117.15625,5.13671875)"/>
<path d="M0 0 C0 0.66 0 1.32 0 2 C-3.4352048 4.29013653 -4.985331 4.17842973 -9 4 C-9 3.01 -9 2.02 -9 1 C-5.92677456 0.08941469 -3.19902639 -0.08886184 0 0 Z " fill="#076BAD" transform="translate(140,176)"/>
<path d="M0 0 C-0.99 0.495 -0.99 0.495 -2 1 C-1.67 2.32 -1.34 3.64 -1 5 C-4.63 4.34 -8.26 3.68 -12 3 C-12 2.67 -12 2.34 -12 2 C-7.82262526 0.40861915 -4.46839215 -0.21278058 0 0 Z " fill="#EECDE1" transform="translate(98,116)"/>
<path d="M0 0 C2.29013653 3.4352048 2.17842973 4.985331 2 9 C1.01 9.495 1.01 9.495 0 10 C-1.58538318 7.48203847 -2.0373656 6.32134414 -1.6875 3.3125 C-1 1 -1 1 0 0 Z " fill="#0D7FBE" transform="translate(170,43)"/>
<path d="M0 0 C1.32 0 2.64 0 4 0 C5.2380014 3.57644848 4.74926071 6.33694766 4 10 C3.67 10 3.34 10 3 10 C2.67 8.35 2.34 6.7 2 5 C1.34 5 0.68 5 0 5 C0 3.35 0 1.7 0 0 Z " fill="#3D3D3D" transform="translate(126,162)"/>
<path d="M0 0 C1.50751963 2.39429588 2.00562203 3.76387491 1.9375 6.625 C1 9 1 9 -1.5625 10.3125 C-2.7690625 10.6528125 -2.7690625 10.6528125 -4 11 C-4 10.34 -4 9.68 -4 9 C-2.68 8.67 -1.36 8.34 0 8 C-0.37125 7.4225 -0.7425 6.845 -1.125 6.25 C-2 4 -2 4 -1.125 1.75 C-0.75375 1.1725 -0.3825 0.595 0 0 Z " fill="#CC156F" transform="translate(141,132)"/>
<path d="M0 0 C1.65 0.33 3.3 0.66 5 1 C5 1.99 5 2.98 5 4 C2.36 4 -0.28 4 -3 4 C-2.01 2.68 -1.02 1.36 0 0 Z " fill="#F2EBF1" transform="translate(64,120)"/>
<path d="M0 0 C-0.33 0.66 -0.66 1.32 -1 2 C-0.01 2.33 0.98 2.66 2 3 C0.02 3.33 -1.96 3.66 -4 4 C-4.33 3.34 -4.66 2.68 -5 2 C-7.01669827 0.86649466 -7.01669827 0.86649466 -9 0 C-5.62182575 -0.84454356 -3.32534757 -1.10844919 0 0 Z " fill="#F2D4E5" transform="translate(73,119)"/>
<path d="M0 0 C1.98 0 3.96 0 6 0 C6 1.32 6 2.64 6 4 C3.36 4.33 0.72 4.66 -2 5 C-1.34 3.35 -0.68 1.7 0 0 Z " fill="#D01572" transform="translate(64,31)"/>
<path d="M0 0 C0 3 0 3 -1 6 C-2.32 6 -3.64 6 -5 6 C-5.33 6.99 -5.66 7.98 -6 9 C-6.99 8.34 -7.98 7.68 -9 7 C-6.03 4.69 -3.06 2.38 0 0 Z " fill="#055F99" transform="translate(48,16)"/>
<path d="M0 0 C0.66 0 1.32 0 2 0 C1.69078116 1.45903258 1.37751201 2.91720722 1.0625 4.375 C0.88847656 5.18710938 0.71445313 5.99921875 0.53515625 6.8359375 C0 9 0 9 -1 11 C-1.66 11 -2.32 11 -3 11 C-2.69078116 9.54096742 -2.37751201 8.08279278 -2.0625 6.625 C-1.88847656 5.81289062 -1.71445313 5.00078125 -1.53515625 4.1640625 C-1 2 -1 2 0 0 Z " fill="#046092" transform="translate(180,120)"/>
<path d="M0 0 C0.66 0 1.32 0 2 0 C2.33 3.63 2.66 7.26 3 11 C1.68 10.01 0.36 9.02 -1 8 C-0.67 5.36 -0.34 2.72 0 0 Z " fill="#036AA4" transform="translate(181,72)"/>
<path d="M0 0 C0.99 0.99 1.98 1.98 3 3 C1.02 5.31 -0.96 7.62 -3 10 C-3.33 9.01 -3.66 8.02 -4 7 C-2.625 5 -2.625 5 -1 3 C-0.67 2.01 -0.34 1.02 0 0 Z " fill="#F4E5EC" transform="translate(43,36)"/>
<path d="M0 0 C5.53846154 -0.36923077 5.53846154 -0.36923077 7.875 1.5 C8.24625 1.995 8.6175 2.49 9 3 C6.36 3.33 3.72 3.66 1 4 C0.67 2.68 0.34 1.36 0 0 Z " fill="#157DB8" transform="translate(78,3)"/>
<path d="M0 0 C5.57142857 5.14285714 5.57142857 5.14285714 6 9 C0.25 5.375 0.25 5.375 -2 2 C-1.34 2 -0.68 2 0 2 C0 1.34 0 0.68 0 0 Z " fill="#CCDADE" transform="translate(43,160)"/>
<path d="M0 0 C3 3 3 3 3.1875 6.6875 C3.125625 7.780625 3.06375 8.87375 3 10 C2.01 9.67 1.02 9.34 0 9 C0 6.03 0 3.06 0 0 Z " fill="#B52169" transform="translate(74,152)"/>
<path d="M0 0 C2.97 0.33 5.94 0.66 9 1 C9 1.33 9 1.66 9 2 C7.35 2.33 5.7 2.66 4 3 C3.67 4.65 3.34 6.3 3 8 C1.68 7.34 0.36 6.68 -1 6 C-0.01 4.68 0.98 3.36 2 2 C1.34 2 0.68 2 0 2 C0 1.34 0 0.68 0 0 Z " fill="#DBD5DB" transform="translate(68,142)"/>
<path d="M0 0 C0.598125 0.165 1.19625 0.33 1.8125 0.5 C4.11344336 1.1114124 4.11344336 1.1114124 7 1 C6.34 1.66 5.68 2.32 5 3 C5.99 3.66 6.98 4.32 8 5 C5.69 5 3.38 5 1 5 C0.67 3.35 0.34 1.7 0 0 Z " fill="#E6A8CC" transform="translate(57,120)"/>
<path d="M0 0 C1.98 0 3.96 0 6 0 C6.33 1.32 6.66 2.64 7 4 C4.36 4 1.72 4 -1 4 C-0.67 2.68 -0.34 1.36 0 0 Z " fill="#F4F3F6" transform="translate(118,96)"/>
<path d="M0 0 C0.66 0.33 1.32 0.66 2 1 C1.25 6.75 1.25 6.75 -1 9 C-2 8 -2 8 -2.1875 5.0625 C-2 2 -2 2 0 0 Z " fill="#1E88C5" transform="translate(180,71)"/>
<path d="M0 0 C0.33 0 0.66 0 1 0 C1 1.65 1 3.3 1 5 C0.34 5 -0.32 5 -1 5 C-0.67 6.32 -0.34 7.64 0 9 C-1.32 9 -2.64 9 -4 9 C-3.47181039 5.19703482 -2.56226812 2.88255163 0 0 Z " fill="#0554A5" transform="translate(25,39)"/>
<path d="M0 0 C0.33 0.66 0.66 1.32 1 2 C1.99 2.33 2.98 2.66 4 3 C5.1875 5.5625 5.1875 5.5625 6 8 C3.36 6.68 0.72 5.36 -2 4 C-2 3.34 -2 2.68 -2 2 C-1.34 2 -0.68 2 0 2 C0 1.34 0 0.68 0 0 Z " fill="#0364AE" transform="translate(161,31)"/>
<path d="M0 0 C2.0625 0.4375 2.0625 0.4375 4 1 C3.67 1.99 3.34 2.98 3 4 C2.34 4 1.68 4 1 4 C1 4.66 1 5.32 1 6 C0.01 5.67 -0.98 5.34 -2 5 C-1.125 1.125 -1.125 1.125 0 0 Z " fill="#ECDBE6" transform="translate(98,135)"/>
<path d="M0 0 C0.99 0 1.98 0 3 0 C3.33 0.99 3.66 1.98 4 3 C4.33 2.01 4.66 1.02 5 0 C5.33 2.31 5.66 4.62 6 7 C3.00675737 5.9024777 2.15389099 5.32317108 0.75 2.375 C0.5025 1.59125 0.255 0.8075 0 0 Z " fill="#F3DAEA" transform="translate(128,115)"/>
<path d="M0 0 C2.31 0.66 4.62 1.32 7 2 C5.8125 3.5 5.8125 3.5 4 5 C1.3125 5.1875 1.3125 5.1875 -1 5 C-0.67 3.35 -0.34 1.7 0 0 Z " fill="#F6F3F7" transform="translate(72,37)"/>
<path d="M0 0 C0.99 0.33 1.98 0.66 3 1 C2.67 2.65 2.34 4.3 2 6 C0.68 5.67 -0.64 5.34 -2 5 C-1.125 1.125 -1.125 1.125 0 0 Z " fill="#196C9C" transform="translate(66,178)"/>
<path d="M0 0 C0.99 0 1.98 0 3 0 C3 0.66 3 1.32 3 2 C3.66 2.33 4.32 2.66 5 3 C4.67 4.98 4.34 6.96 4 9 C2.00902154 6.01353231 1.05875074 3.40312738 0 0 Z " fill="#F5E6EF" transform="translate(134,115)"/>
<path d="M0 0 C0.33 0 0.66 0 1 0 C1 2.64 1 5.28 1 8 C-0.32 8 -1.64 8 -3 8 C-3 6.68 -3 5.36 -3 4 C-2.01 4 -1.02 4 0 4 C0 2.68 0 1.36 0 0 Z " fill="#2577A4" transform="translate(75,178)"/>
<path d="M0 0 C2.31 0 4.62 0 7 0 C7 1.32 7 2.64 7 4 C5.35 3.67 3.7 3.34 2 3 C2 2.34 2 1.68 2 1 C1.34 0.67 0.68 0.34 0 0 Z " fill="#065794" transform="translate(43,170)"/>
<path d="M0 0 C2.31 0.33 4.62 0.66 7 1 C7 1.66 7 2.32 7 3 C3.71023192 4.09658936 2.28696233 3.79953138 -1 3 C-0.67 2.01 -0.34 1.02 0 0 Z " fill="#1C81B9" transform="translate(43,167)"/>
<path d="M0 0 C0 1.32 0 2.64 0 4 C-1.65 4.33 -3.3 4.66 -5 5 C-5 3.68 -5 2.36 -5 1 C-3 0 -3 0 0 0 Z " fill="#C52371" transform="translate(103,164)"/>
<path d="M0 0 C3 0 3 0 4.6875 1.1875 C6.40364695 3.55741722 6.23187108 5.14025666 6 8 C3.33264727 5.51047079 1.44253657 3.36591866 0 0 Z " fill="#026C9B" transform="translate(21,145)"/>
<path d="M0 0 C0.66 0.33 1.32 0.66 2 1 C2.625 3.0625 2.625 3.0625 3 5 C1.741875 4.87625 0.48375 4.7525 -0.8125 4.625 C-1.87404297 4.52058594 -1.87404297 4.52058594 -2.95703125 4.4140625 C-5 4 -5 4 -8 2 C-5.69 2 -3.38 2 -1 2 C-0.67 1.34 -0.34 0.68 0 0 Z " fill="#EDC2DC" transform="translate(120,118)"/>
<path d="M0 0 C2.35953094 2.35953094 2.49141413 3.77895617 3 7 C2.01 7 1.02 7 0 7 C-0.66 7.99 -1.32 8.98 -2 10 C-2.22036864 6.14354879 -1.60355101 3.50776784 0 0 Z " fill="#D43F88" transform="translate(159,57)"/>
<path d="M0 0 C1.1157177 3.34715311 1.1807689 4.71071522 0 8 C-2.5625 9.3125 -2.5625 9.3125 -5 10 C-3.66511872 6.40608886 -2.03977277 3.24509304 0 0 Z " fill="#E2F0F3" transform="translate(29,41)"/>
<path d="M0 0 C0 1.65 0 3.3 0 5 C-2.64 5 -5.28 5 -8 5 C-5.93424534 2.72766987 -3.29882018 0 0 0 Z " fill="#2A8DC3" transform="translate(141,172)"/>
<path d="M0 0 C0.99 0.33 1.98 0.66 3 1 C3 1.66 3 2.32 3 3 C2.34 3 1.68 3 1 3 C1 3.66 1 4.32 1 5 C0.01 5.33 -0.98 5.66 -2 6 C-2 4.35 -2 2.7 -2 1 C-1.34 0.67 -0.68 0.34 0 0 Z " fill="#0463A6" transform="translate(143,171)"/>
<path d="M0 0 C0.33 0.66 0.66 1.32 1 2 C-0.65 4.31 -2.3 6.62 -4 9 C-4.99 8.67 -5.98 8.34 -7 8 C-4.69 5.36 -2.38 2.72 0 0 Z " fill="#D23380" transform="translate(140,132)"/>
<path d="M0 0 C0.33 0.66 0.66 1.32 1 2 C1.99 2 2.98 2 4 2 C3.34 3.32 2.68 4.64 2 6 C1.34 5.34 0.68 4.68 0 4 C-0.99 4.495 -0.99 4.495 -2 5 C-2 3.68 -2 2.36 -2 1 C-1.34 0.67 -0.68 0.34 0 0 Z " fill="#D3156E" transform="translate(100,44)"/>
<path d="M0 0 C1.98 0 3.96 0 6 0 C6.33 0.66 6.66 1.32 7 2 C6.01 2.99 5.02 3.98 4 5 C2.68 3.35 1.36 1.7 0 0 Z " fill="#F5EDF2" transform="translate(89,38)"/>
<path d="M0 0 C1.41623216 -0.05447047 2.83308191 -0.09300508 4.25 -0.125 C5.03890625 -0.14820312 5.8278125 -0.17140625 6.640625 -0.1953125 C9.20731941 0.0171622 10.7916067 0.71345895 13 2 C10.69 2.33 8.38 2.66 6 3 C6 2.34 6 1.68 6 1 C4.02 1 2.04 1 0 1 C0 0.67 0 0.34 0 0 Z " fill="#D35192" transform="translate(64,30)"/>
<path d="M0 0 C0.66 0.33 1.32 0.66 2 1 C1.34 3.31 0.68 5.62 0 8 C-0.66 8 -1.32 8 -2 8 C-1.125 1.125 -1.125 1.125 0 0 Z " fill="#AE1B64" transform="translate(123,151)"/>
<path d="M0 0 C2.64 0 5.28 0 8 0 C8 0.66 8 1.32 8 2 C5.36 2.33 2.72 2.66 0 3 C0 2.01 0 1.02 0 0 Z " fill="#D7659D" transform="translate(84,140)"/>
<path d="M0 0 C1.32 1.65 2.64 3.3 4 5 C3.34 6.32 2.68 7.64 2 9 C0.05276405 6.07914607 -0.55175352 4.40667322 -1 1 C-0.67 0.67 -0.34 0.34 0 0 Z " fill="#D22779" transform="translate(142,130)"/>
<path d="M0 0 C1.5625 1.25 1.5625 1.25 3 3 C2.6875 5.1875 2.6875 5.1875 2 7 C1.01 7 0.02 7 -1 7 C-0.67 4.69 -0.34 2.38 0 0 Z " fill="#D42C84" transform="translate(134,118)"/>
<path d="M0 0 C1.65 1.32 3.3 2.64 5 4 C4.67 5.98 4.34 7.96 4 10 C3.67 10 3.34 10 3 10 C1.87119943 6.68885166 0.78697325 3.41021743 0 0 Z " fill="#D32A7C" transform="translate(156,103)"/>
<path d="M0 0 C0.99 0.33 1.98 0.66 3 1 C1.515 4.465 1.515 4.465 0 8 C-0.33 8 -0.66 8 -1 8 C-1.04241723 5.66705225 -1.04092937 3.33297433 -1 1 C-0.67 0.67 -0.34 0.34 0 0 Z " fill="#1D84C3" transform="translate(22,47)"/>
<path d="M0 0 C0.99 0.33 1.98 0.66 3 1 C1.02 3.97 1.02 3.97 -1 7 C-1.66 6.67 -2.32 6.34 -3 6 C-3 5.34 -3 4.68 -3 4 C-2.34 4 -1.68 4 -1 4 C-0.67 2.68 -0.34 1.36 0 0 Z " fill="#2288C6" transform="translate(27,40)"/>
<path d="M0 0 C2.64 0.66 5.28 1.32 8 2 C7.01 2.33 6.02 2.66 5 3 C5 3.66 5 4.32 5 5 C3 5 3 5 1.375 3.625 C0 2 0 2 0 0 Z " fill="#5E5A5C" transform="translate(121,159)"/>
<path d="M0 0 C0.33 0.66 0.66 1.32 1 2 C1.66 2 2.32 2 3 2 C3 3.65 3 5.3 3 7 C2.01 6.67 1.02 6.34 0 6 C-0.75 4.0625 -0.75 4.0625 -1 2 C-0.67 1.34 -0.34 0.68 0 0 Z " fill="#3F2734" transform="translate(107,146)"/>
<path d="M0 0 C0.66 0 1.32 0 2 0 C2 1.98 2 3.96 2 6 C1.01 6 0.02 6 -1 6 C-1 5.34 -1 4.68 -1 4 C-2.32 3.67 -3.64 3.34 -5 3 C-3.02 3 -1.04 3 1 3 C0.67 2.01 0.34 1.02 0 0 Z " fill="#ECD0DD" transform="translate(91,139)"/>
<path d="M0 0 C1.98 0.99 1.98 0.99 4 2 C4 1.34 4 0.68 4 0 C4.99 0.33 5.98 0.66 7 1 C7 1.66 7 2.32 7 3 C5.02 3.33 3.04 3.66 1 4 C0.67 2.68 0.34 1.36 0 0 Z " fill="#D2699C" transform="translate(95,139)"/>
<path d="M0 0 C0.33 0 0.66 0 1 0 C1.33 1.98 1.66 3.96 2 6 C1.01 6.495 1.01 6.495 0 7 C-0.99 6.01 -1.98 5.02 -3 4 C-2.02727325 2.64664105 -1.0260734 1.31337396 0 0 Z " fill="#D4307D" transform="translate(146,124)"/>
<path d="M0 0 C0.66 0.33 1.32 0.66 2 1 C0.92598892 3.91517292 0.22189824 5.77810176 -2 8 C-2.125 5.125 -2.125 5.125 -2 2 C-1.34 1.34 -0.68 0.68 0 0 Z " fill="#F4EDF3" transform="translate(148,116)"/>
<path d="M0 0 C2 2 2 2 2 5 C0.02 5.99 0.02 5.99 -2 7 C-1.125 1.125 -1.125 1.125 0 0 Z " fill="#016DAC" transform="translate(180,66)"/>
<path d="M0 0 C0.33 0.66 0.66 1.32 1 2 C1.66 2.33 2.32 2.66 3 3 C2.34 3.66 1.68 4.32 1 5 C0.30251417 6.31747324 -0.36959957 7.64914193 -1 9 C-2.0326802 6.21176345 -2.04509293 5.1322726 -1.0625 2.25 C-0.711875 1.5075 -0.36125 0.765 0 0 Z " fill="#D0E7EF" transform="translate(18,62)"/>
<path d="M0 0 C0.66 0.33 1.32 0.66 2 1 C-0.83430453 4.2542015 -2.68607774 5.5206753 -7 6 C-2.25 1.125 -2.25 1.125 0 0 Z " fill="#F2D4E6" transform="translate(114,39)"/>
<path d="M0 0 C1.98 0 3.96 0 6 0 C6 1.65 6 3.3 6 5 C1.125 2.25 1.125 2.25 0 0 Z " fill="#CE2D79" transform="translate(81,40)"/>
</svg>
